<svg version="1.2" xmlns="http://www.w3.org/2000/svg" viewBox="0 0 22 22" width="22" height="22"><style>.a{fill:#fde047}</style><path fill-rule="evenodd" class="a" d="m20.7 3.1q0.2-0.1 0.3-0.4 0.1-0.2 0.1-0.5 0-0.2-0.1-0.5-0.1-0.2-0.3-0.4-0.2-0.2-0.4-0.3-0.3-0.1-0.5-0.1-0.3 0-0.5 0.1-0.3 0.1-0.4 0.3l-7.9 7.9-7.9-7.9c-0.2-0.3-0.5-0.4-0.9-0.4-0.3 0-0.7 0.1-0.9 0.4-0.3 0.2-0.4 0.6-0.4 0.9 0 0.4 0.1 0.7 0.4 0.9l7.9 7.9-7.9 7.9q-0.2 0.1-0.3 0.4-0.1 0.2-0.1 0.5 0 0.2 0.1 0.5 0.1 0.2 0.3 0.4c0.2 0.3 0.6 0.4 0.9 0.4q0.3 0 0.5-0.1 0.3-0.1 0.4-0.3l7.9-7.9 7.9 7.9c0.2 0.3 0.5 0.4 0.9 0.4 0.3 0 0.7-0.2 0.9-0.4 0.3-0.2 0.4-0.6 0.4-0.9 0-0.4-0.1-0.7-0.4-0.9l-7.9-7.9z"/></svg>