<svg version="1.2" xmlns="http://www.w3.org/2000/svg" viewBox="0 0 1000 1000" width="1000" height="1000"><defs><clipPath clipPathUnits="userSpaceOnUse" id="cp1"><path d="m425.42 466.49c8.41 58.93 15.33 97.86 57.62 96.61 42.28-1.25 96.1-49.88 95.5-101.14-0.6-51.25-35.36-91.79-77.65-90.53-42.28 1.25-76.07 43.81-75.47 95.06z"/></clipPath></defs><style>.a{fill:#dab6e4}.b{fill:#5b4dcd}.c{fill:#fff}.d{fill:#4133b3}.e{fill:#2d2280}.f{fill:#2c217d}.g{fill:#cb98d8}.h{fill:#897fdb}.i{fill:#dbb6e3}.j{fill:#1d262d}.k{opacity:0;fill:#1d262d}</style><path class="a" d="m375.5 768.3c0 0-21.6 2.7-41.3-0.7-6-1.1-2.8 4.4-2 4.9 3.8 2.4 17.4 5.8 16.6 6.6-1.6 1.7-27.5 4.2-36.6 4-0.9 0-10.8-0.5-10.7 0.8 0 3.2 5.2 4 7.6 4.4 8.3 1.1 33.5 0.7 32.3 0.9-2.3 0.3-21.5 4-28.9 5-0.4 0.1-10.9 1.6-10.7 2.9 0.4 2.7 8.6 2.5 10.5 2.4 7.4-0.7 27.6-2.1 30.1-2.3 1.1-0.1-7 2.4-9.2 3.1-7 2-14.5 3-21.3 5.3-1.4 0.4-6.2 1.5-5.6 3.9 0.4 1.5 4.4 1.5 5.4 1.5 6.6 0 50.2-9.2 61.2-15.6 4.2-2.4 12.7-2.7 12.7-2.7 0 0 1.3-20.3-10.1-24.4z"/><path class="b" d="m356.1 462.7c0-20.1-16.3-36.4-36.4-36.4h-91.4c-20 0-36.4 16.3-36.4 36.4v38.4c0 20.1 16.4 36.4 36.4 36.4h30.7l21.7 32c0 0 5.5 8.3 11 7.4 6.4-1 5.4-11.8 5.4-11.8l1.4-27.6h21.2c20.1 0 36.4-16.3 36.4-36.4z"/><path class="c" d="m221.2 463.6h0.3l0.2 0.1h0.2l0.2 0.1 0.2 0.1 0.1 0.1 0.2 0.1 0.2 0.1 0.2 0.1 0.1 0.2 0.2 0.1 0.1 0.2 0.1 0.1 0.1 0.2 0.2 0.2v0.2l0.1 0.2 0.1 0.2v0.2l0.1 0.2v0.2l0.2 4.6 0.2 4.6 0.2 2.2 0.1 2.3 0.1 2.3 0.1 2.3 0.1 2.3 0.1 2.3 0.1 2.3 0.1 2.3 0.1 2.3v2.3l0.1 1.1v1.2 1.1l0.1 1.2v0.2l-0.1 0.2v0.2 0.2l-0.1 0.2-0.1 0.2v0.2l-0.1 0.2-0.2 0.2-0.1 0.1-0.1 0.2-0.2 0.1-0.1 0.2-0.2 0.1-0.1 0.1-0.2 0.1-0.2 0.1-0.2 0.1-0.2 0.1h-0.2l-0.2 0.1h-0.2-0.2-0.3-0.2-0.2l-0.2-0.1h-0.2l-0.2-0.1-0.2-0.1-0.2-0.1-0.1-0.1-0.2-0.1-0.2-0.1-0.1-0.2-0.2-0.1-0.1-0.2-0.1-0.2-0.1-0.2-0.1-0.2-0.1-0.1-0.1-0.2v-0.3l-0.1-0.2v-0.2-0.2l-0.1-1.1v-1.2-1.1l-0.1-1.1v-2.3l-0.1-2.3-0.1-2.3-0.1-2.2-0.1-2.3-0.1-2.3-0.1-2.3-0.1-2.3-0.1-2.2-0.1-2.3-0.3-4.6-0.2-4.6v-0.2-0.2-0.2l0.1-0.2v-0.2l0.1-0.2 0.1-0.2 0.1-0.2 0.1-0.2 0.1-0.1 0.1-0.2 0.2-0.2 0.1-0.1 0.2-0.2 0.1-0.1 0.2-0.1 0.2-0.1 0.2-0.1 0.2-0.1h0.2l0.2-0.1h0.2 0.2 0.2z"/><path class="c" d="m244.3 461.7l0.2 0.1h0.2 0.2l0.2 0.1 0.2 0.1 0.2 0.1 0.2 0.1 0.1 0.1 0.2 0.2 0.2 0.1 0.1 0.2 0.2 0.1 0.1 0.2 0.1 0.2 0.1 0.2 0.1 0.2 0.1 0.2v0.2l0.1 0.2v0.2 0.2 0.3 0.5l-0.1 0.6v0.6 0.6 0.6 0.5 0.6 0.6l-0.1 0.6v0.6 0.5l0.1 0.6v0.6 0.6 0.6 0.6 0.6 0.5l0.1 1.2v1.2 1.2l0.1 1.2v1.2l0.2 2.3 0.1 2.4v1.2l0.1 1.2v1.2l0.1 1.3v1.2 0.6 0.6l0.1 0.6v0.6 0.6 0.6 0.6 0.6 0.6 0.6 0.6 0.7 0.6 0.6l-0.1 0.6v0.6 0.6 0.6 0.2l-0.1 0.2v0.3l-0.1 0.2-0.1 0.2-0.1 0.2-0.1 0.1-0.1 0.2-0.1 0.2-0.1 0.2-0.2 0.1-0.2 0.2-0.1 0.1-0.2 0.1-0.2 0.1-0.2 0.1-0.2 0.1-0.2 0.1h-0.2-0.2l-0.2 0.1h-0.2-0.3l-0.2-0.1h-0.2l-0.2-0.1h-0.2l-0.2-0.1-0.2-0.1-0.2-0.1-0.2-0.1-0.1-0.2-0.2-0.1-0.1-0.2-0.2-0.1-0.1-0.2-0.1-0.2-0.1-0.2-0.1-0.2-0.1-0.2v-0.2l-0.1-0.2v-0.2-0.2-0.3-0.5-0.6l0.1-0.6v-0.6-0.6-0.5-0.6-0.6-0.6-0.6-0.5-0.6-0.6-0.6-0.6-0.6l-0.1-0.6v-0.6-1.1l-0.1-1.2v-1.2l-0.1-1.2v-1.2l-0.1-2.4-0.1-2.4-0.1-1.2v-1.2l-0.1-1.2v-1.2l-0.1-1.2v-0.6-0.6-0.6-0.6-0.6-0.6-0.6-0.6-0.6-0.7-0.6-0.6-0.6-0.6-0.6l0.1-0.6v-0.6-0.6-0.3l0.1-0.2v-0.2l0.1-0.2v-0.2l0.1-0.2 0.1-0.2 0.2-0.2 0.1-0.1 0.1-0.2 0.2-0.1 0.1-0.2 0.2-0.1 0.2-0.1 0.2-0.1 0.2-0.1 0.2-0.1 0.2-0.1h0.2l0.2-0.1h0.2 0.2z"/><path class="c" d="m243.7 481.3h0.2 0.2l0.1 0.1h0.2 0.1l0.2 0.1 0.1 0.1h0.2l0.1 0.1 0.2 0.1 0.1 0.1 0.1 0.1 0.2 0.1 0.1 0.1 0.1 0.1 0.1 0.1 0.1 0.2 0.1 0.1 0.1 0.2 0.1 0.1v0.2l0.1 0.1v0.2l0.1 0.1v0.2l0.1 0.1v0.2 0.2 0.1 0.2 0.2l-0.1 0.1v0.2 0.1l-0.1 0.2v0.2l-0.1 0.1-0.1 0.2-0.1 0.1-0.1 0.1-0.1 0.2-0.1 0.1-0.1 0.1-0.1 0.1-0.1 0.1-0.1 0.1-0.2 0.1-0.1 0.1-0.2 0.1-0.1 0.1-0.2 0.1h-0.1l-0.2 0.1h-0.1-0.2l-0.2 0.1h-0.1-0.7l-0.7 0.1h-0.7-0.7l-1.4 0.1-1.4 0.1h-1.4l-1.4 0.1h-0.7l-0.7 0.1h-0.7-0.7l-0.7 0.1h-0.7l-0.7 0.1-0.7 0.1h-0.6l-0.7 0.1h-0.3l-0.4 0.1h-0.3-0.3l-0.4 0.1h-0.3l-0.3 0.1h-0.4l-0.3 0.1h-0.3l-0.3 0.1h-0.3l-0.4 0.1-0.3 0.1h-0.3l-0.3 0.1-0.3 0.1h-0.3l-0.3 0.1-0.4 0.1h-0.1-0.2-0.2l-0.1 0.1h-0.2l-0.1-0.1h-0.2-0.2-0.1l-0.2-0.1h-0.1l-0.2-0.1-0.2-0.1h-0.1l-0.1-0.1-0.2-0.1-0.1-0.1-0.1-0.1-0.2-0.1-0.1-0.2-0.1-0.1-0.1-0.1-0.1-0.1-0.1-0.2v-0.1l-0.1-0.2-0.1-0.1v-0.2l-0.1-0.1v-0.2-0.2l-0.1-0.1v-0.2-0.2-0.1-0.2l0.1-0.2v-0.1-0.2l0.1-0.1v-0.2l0.1-0.1 0.1-0.2 0.1-0.1 0.1-0.2v-0.1l0.1-0.1 0.2-0.2 0.1-0.1 0.1-0.1 0.1-0.1 0.2-0.1 0.1-0.1 0.1-0.1h0.2l0.1-0.1 0.2-0.1h0.1l0.2-0.1h0.3l0.4-0.1 0.4-0.1 0.3-0.1h0.4l0.3-0.1 0.4-0.1 0.4-0.1h0.3l0.4-0.1h0.4l0.3-0.1h0.4l0.3-0.1h0.4l0.4-0.1h0.3l0.4-0.1h0.4l0.3-0.1h0.8l0.7-0.1 0.7-0.1h0.7l0.8-0.1h0.7l0.7-0.1h0.7l0.7-0.1h0.8l1.4-0.1h1.4l1.4-0.1 1.4-0.1h0.7 0.6l0.7-0.1h0.7 0.2z"/><path class="c" d="m274.6 460.3h0.2l0.2 0.1h0.1 0.2l0.2 0.1 0.1 0.1h0.2l0.1 0.1 0.2 0.1 0.1 0.1 0.1 0.1 0.2 0.1 0.1 0.1 0.1 0.1 0.1 0.2 0.1 0.1 0.1 0.2 0.1 0.1 0.1 0.2v0.1l0.1 0.2 0.1 0.1v0.2 0.2l0.1 0.1v0.2 0.2 0.1 0.2l-0.1 0.2v0.2 0.1l-0.1 0.2v0.1l-0.1 0.2-0.1 0.1-0.1 0.2-0.1 0.1-0.1 0.2-0.1 0.1-0.1 0.1-0.1 0.2-0.1 0.1-0.2 0.1-0.1 0.1-0.1 0.1h-0.2l-0.2 0.1-0.1 0.1h-0.2l-0.1 0.1h-0.2l-0.2 0.1h-0.4l-0.4 0.1h-0.4l-0.4 0.1h-0.4-0.4l-0.4 0.1h-0.3-0.4l-0.4 0.1h-0.4-0.4-0.4l-0.4 0.1h-0.4-0.4-0.8-0.7-0.8l-0.8 0.1h-1.5-0.7-0.8-0.7-0.8-0.7l-0.3 0.1h-0.4-0.4-0.3-0.4-0.3l-0.4 0.1h-0.3-0.4l-0.3 0.1h-0.4-0.3l-0.4 0.1h-0.3l-0.4 0.1h-0.3-0.4l-0.3 0.1-0.3 0.1h-0.4l-0.3 0.1-0.3 0.1h-0.4l-0.3 0.1-0.3 0.1-0.4 0.1h-0.1-0.2l-0.2 0.1h-0.1-0.2-0.2-0.1l-0.2-0.1h-0.2l-0.1-0.1h-0.2l-0.2-0.1h-0.1l-0.2-0.1-0.1-0.1-0.2-0.1-0.1-0.1-0.1-0.1-0.1-0.1-0.2-0.2-0.1-0.1-0.1-0.1-0.1-0.2-0.1-0.1v-0.2l-0.1-0.1-0.1-0.2v-0.2l-0.1-0.1v-0.2-0.2-0.1-0.2-0.2-0.1-0.2-0.2l0.1-0.1v-0.2l0.1-0.2 0.1-0.1v-0.2l0.1-0.1 0.1-0.2 0.1-0.1 0.1-0.1 0.1-0.2 0.1-0.1 0.2-0.1 0.1-0.1 0.1-0.1 0.2-0.1 0.1-0.1h0.2l0.2-0.1 0.1-0.1h0.2l0.4-0.1 0.4-0.1 0.4-0.1 0.4-0.1 0.4-0.1 0.4-0.1h0.4l0.4-0.1 0.4-0.1h0.4l0.4-0.1h0.4l0.4-0.1h0.4l0.4-0.1h0.4 0.4l0.4-0.1h0.4 0.4l0.4-0.1h0.4 0.3 0.4 0.4 0.4l0.8-0.1h0.8 0.7 0.8 0.7 1.5 0.8l0.7-0.1h0.8 0.7 0.4 0.3 0.4l0.3-0.1h0.4 0.3 0.4l0.4-0.1h0.3 0.4 0.3l0.4-0.1h0.3l0.3-0.1h0.4l0.3-0.1h0.2 0.2 0.2z"/><path class="c" d="m262.5 462.5h0.2l0.2 0.1h0.2l0.2 0.1h0.2l0.2 0.1 0.2 0.1 0.2 0.2 0.1 0.1 0.2 0.1 0.2 0.2 0.1 0.1 0.1 0.2 0.1 0.2 0.1 0.2 0.1 0.2 0.1 0.2 0.1 0.2v0.2 0.2l0.1 0.2v1.2l0.1 1.1v1.2l0.1 1.1v1.2l0.1 1.2v1.1l0.1 1.2v1.1l0.1 1.2v1.1 1.2l0.1 2.3v2.3l0.1 2.3v2.3l0.1 2.3v2.3l0.1 2.3v1.2 1.1l0.1 1.2v1.1l0.1 1.1v1.2 0.2 0.2 0.2l-0.1 0.2v0.2l-0.1 0.2-0.1 0.2-0.1 0.2-0.1 0.2-0.1 0.2-0.2 0.1-0.1 0.2-0.2 0.1-0.1 0.2-0.2 0.1-0.2 0.1-0.2 0.1-0.1 0.1-0.2 0.1h-0.2l-0.3 0.1h-0.2-0.2-0.2-0.2-0.2l-0.2-0.1h-0.2l-0.2-0.1-0.2-0.1-0.2-0.1-0.2-0.1-0.2-0.1-0.1-0.2-0.2-0.1-0.1-0.2-0.1-0.1-0.2-0.2-0.1-0.2-0.1-0.2-0.1-0.1v-0.2l-0.1-0.3v-0.2l-0.1-0.2v-0.2-1.1l-0.1-1.2v-1.1-1.2l-0.1-1.2v-1.1l-0.1-2.3v-2.3l-0.1-2.3v-2.3l-0.1-2.3v-2.3l-0.1-2.3v-1.2-1.1l-0.1-1.2v-1.1-1.2l-0.1-1.1v-1.1l-0.1-1.2v-1.1l-0.1-1.2-0.1-1.1v-1.1-0.3-0.2-0.2-0.2l0.1-0.2 0.1-0.2v-0.2l0.1-0.2 0.1-0.2 0.2-0.1 0.1-0.2 0.1-0.2 0.2-0.1 0.1-0.1 0.2-0.2 0.2-0.1 0.2-0.1 0.2-0.1 0.2-0.1h0.2l0.2-0.1h0.2 0.2 0.2z"/><path class="c" d="m305.1 457.3h0.3 0.2l0.2 0.1h0.3l0.1 0.1 0.2 0.1 0.2 0.1 0.1 0.1 0.2 0.1 0.1 0.1 0.1 0.1h0.1l0.1 0.1 0.1 0.1v0.1l0.1 0.1 0.1 0.1 0.1 0.1 0.1 0.2 0.1 0.2 0.1 0.1 0.1 0.2v0.1l0.1 0.2 0.2 0.3 0.1 0.2v0.3l0.1 0.2 0.2 0.4 0.1 0.3 0.1 0.2 0.1 0.3v0.3l0.1 0.3 0.1 0.3 0.1 0.3v0.3l0.1 0.3 0.1 0.3v0.3l0.1 0.3v0.3l0.1 0.3v0.3 0.3l0.1 0.3v0.3 0.3l0.1 0.2v0.3 0.3 0.3 0.3l0.1 0.3v0.3 0.5 0.6 0.5 0.6 1.1 1.1 2.1 2.2 2.1 2.2 2.1 1.1 1 1.1 1.1 1 1.1l0.1 1.1v1 1.1 1.1l0.1 1v1.1l0.1 1v1.1l0.1 0.5v0.5 0.6 0.5l0.1 0.5v0.5l0.1 0.6v0.5 0.5l0.1 0.5v0.6l0.1 0.5v0.2 0.3 0.2l-0.1 0.2v0.2l-0.1 0.3-0.1 0.2-0.1 0.2-0.1 0.2-0.1 0.2-0.2 0.2-0.1 0.1-0.2 0.2-0.2 0.1-0.2 0.1-0.2 0.2h-0.2l-0.2 0.1-0.2 0.1h-0.3l-0.2 0.1h-0.2-0.3-0.2l-0.2-0.1h-0.2l-0.3-0.1-0.2-0.1-0.2-0.1-0.2-0.1-0.2-0.2-0.1-0.1-0.2-0.2-0.2-0.1-0.1-0.2-0.1-0.2-0.2-0.2v-0.2l-0.1-0.2-0.1-0.3v-0.2l-0.1-0.2v-0.6l-0.1-0.5v-0.6l-0.1-0.5v-0.5-0.6l-0.1-0.5v-0.6l-0.1-0.5v-0.6-0.5l-0.1-0.6v-1.1l-0.1-1.1v-1-1.1l-0.1-1.1v-1.1-1.1-1.1l-0.1-1.1v-1.1-1-1.1-1.1-1.1-2.2-2.1-2.2-2.1-2.1-1.1-1.1-0.5-0.1l-0.1 0.2-0.3 0.8-0.5 1.6-0.4 0.8-0.3 0.9-0.3 0.8-0.1 0.4-0.2 0.4-0.2 0.4-0.1 0.4-0.2 0.4-0.2 0.4-0.1 0.4-0.2 0.4-0.2 0.5-0.2 0.3-0.2 0.6-0.2 0.3-0.1 0.3-0.2 0.3-0.1 0.2-0.1 0.2-0.1 0.2-0.1 0.2-0.1 0.2-0.1 0.2-0.1 0.2-0.2 0.2-0.1 0.2-0.1 0.2-0.2 0.2-0.1 0.2-0.2 0.2-0.2 0.3-0.2 0.1-0.1 0.2-0.1 0.1-0.1 0.1-0.1 0.1-0.1 0.1-0.2 0.1-0.1 0.1-0.1 0.1-0.2 0.1h-0.1l-0.2 0.1-0.2 0.1-0.1 0.1-0.2 0.1h-0.2l-0.2 0.1h-0.2l-0.2 0.1h-0.3-0.2-0.2l-0.2-0.1h-0.3l-0.2-0.1-0.2-0.1-0.2-0.1-0.2-0.1-0.2-0.1-0.2-0.2-0.1-0.1-0.2-0.2-0.1-0.1-0.1-0.2-0.2-0.2-0.1-0.3-0.2-0.3-0.5-0.8-0.5-0.8-1-1.7-0.4-0.6-0.1-0.1v-0.1l-0.2-0.3-0.3-0.4-0.2-0.3-0.2-0.4-0.2-0.3-0.2-0.3-0.2-0.4-0.2-0.3-0.3-0.7-0.4-0.6-0.4-0.7-0.1-0.3-0.2-0.3-0.2-0.3-0.2-0.3-0.1-0.3-0.2-0.3-0.2-0.2-0.2-0.3-0.1-0.1-0.1-0.2v-0.1l-0.1-0.1-0.1-0.1-0.1-0.2-0.1-0.1-0.1-0.1-0.1-0.1-0.1-0.1-0.1-0.1-0.1-0.2h-0.1l0.1 0.4v0.4l0.1 0.9v0.4 0.3 0.2 0.8l0.1 0.7v0.8 0.8l0.1 0.4v0.4 0.5 0.4 0.4 0.4 0.4 0.4 0.6 0.6 0.6l-0.1 0.6v0.6 0.5 1.2l-0.1 1.1v1.2l-0.1 1.1v0.6 0.5 0.4 0.5l-0.1 0.9v0.8 0.9 0.9 0.9 0.9 0.9l0.1 0.9v0.9 1.8 1.8 0.9 0.9 0.2 0.2 0.3l-0.1 0.2-0.1 0.2-0.1 0.2-0.1 0.2-0.1 0.2-0.1 0.2-0.2 0.2-0.1 0.1-0.2 0.2-0.2 0.1-0.2 0.2-0.2 0.1-0.2 0.1h-0.2l-0.2 0.1-0.3 0.1h-0.2-0.2-0.3-0.2l-0.2-0.1h-0.2l-0.3-0.1-0.2-0.1-0.2-0.1-0.2-0.1-0.2-0.2-0.1-0.1-0.2-0.2-0.2-0.1-0.1-0.2-0.1-0.2-0.1-0.2-0.1-0.2-0.1-0.3-0.1-0.2v-0.2-0.2-0.3l-0.1-0.9v-0.9-1.7-1.8-0.9-1l-0.1-0.9v-0.9-0.9-0.9-0.9l0.1-0.9v-0.9-0.5-0.5-0.5-0.6l0.1-1.2v-1.1l0.1-1.2v-1.1-0.6l0.1-0.5v-0.6-0.5-0.6-0.5-0.4-0.4-0.3-0.4-0.4-0.4-0.3-0.4l-0.1-0.8v-0.8-0.8l-0.1-0.8v-0.1-0.2-0.4l-0.1-0.9v-0.5-0.5l-0.1-0.3v-0.2-0.3-0.3-0.3-0.3-0.3-0.3l0.1-0.3v-0.3-0.3-0.3l0.1-0.1v-0.2-0.2l0.1-0.1v-0.2-0.1l0.1-0.2v-0.2-0.1l0.1-0.2 0.1-0.1v-0.2l0.1-0.2v-0.1l0.1-0.2 0.1-0.2 0.1-0.2 0.1-0.1 0.1-0.2 0.1-0.2 0.2-0.1 0.1-0.2 0.2-0.1 0.1-0.1 0.2-0.1v-0.1h0.2l0.1-0.1 0.2-0.1 0.1-0.1h0.1 0.1l0.1-0.1h0.2l0.3-0.1h0.3 0.2 0.2 0.2 0.2 0.2 0.2l0.2 0.1h0.1 0.2l0.1 0.1h0.1l0.2 0.1 0.2 0.1 0.3 0.1 0.2 0.1 0.2 0.1 0.2 0.1 0.3 0.1 0.2 0.1 0.2 0.1 0.1 0.1 0.2 0.1 0.2 0.1 0.2 0.1 0.1 0.1 0.3 0.2 0.3 0.2 0.2 0.2 0.2 0.1 0.1 0.1 0.2 0.2 0.2 0.1 0.1 0.2 0.2 0.2 0.2 0.1 0.1 0.2 0.2 0.2 0.1 0.1 0.2 0.2 0.1 0.2 0.2 0.1 0.1 0.2 0.1 0.2 0.2 0.2 0.1 0.1 0.1 0.2 0.2 0.2 0.1 0.2 0.1 0.1 0.1 0.2 0.3 0.4 0.2 0.3 0.2 0.4 0.2 0.3 0.2 0.3 0.2 0.4 0.2 0.3 0.2 0.4 0.4 0.7 0.4 0.6 0.3 0.7 0.2 0.3 0.2 0.3 0.2 0.3 0.1 0.3 0.2 0.3 0.2 0.3 0.2 0.2 0.2 0.4 0.1 0.1 0.1 0.2 0.3 0.6 0.1-0.3 0.2-0.3 0.2-0.4 0.1-0.4 0.2-0.4 0.1-0.3 0.2-0.4 0.2-0.4 0.1-0.4 0.2-0.4 0.3-0.8 0.3-0.7 0.3-0.8 0.6-1.6 0.3-0.8 0.3-0.9 0.3-0.8 0.3-0.8 0.2-0.4 0.1-0.4 0.2-0.4 0.1-0.4h0.1v-0.1l0.1-0.2 0.2-0.6 0.1-0.5 0.2-0.4 0.2-0.4 0.1-0.3 0.1-0.2 0.1-0.3 0.1-0.2 0.1-0.3 0.1-0.2 0.1-0.2 0.1-0.3 0.2-0.2 0.1-0.3 0.1-0.2 0.1-0.1 0.1-0.2 0.1-0.1 0.1-0.1 0.1-0.2 0.1-0.1 0.1-0.1 0.2-0.2 0.1-0.1 0.2-0.2 0.2-0.1 0.3-0.2 0.2-0.1h0.1l0.1-0.1h0.1l0.2-0.1 0.2-0.1h0.2 0.2 0.2z"/><path class="c" d="m318.8 457.7l0.2 0.1h0.2l0.3 0.1h0.2l0.2 0.1 0.2 0.2 0.2 0.1 0.2 0.1 0.2 0.2 0.1 0.2 0.2 0.2 0.1 0.2 0.1 0.2 0.1 0.2 0.1 0.2 0.1 0.2v0.3l0.1 0.2v0.2 0.3l-0.1 1v1.1l-0.1 1v1.1l-0.1 1.1v1.1 1l-0.1 1.1v1.1 1.1 1.1 1.1l-0.1 1v1.1 1.1 1.1l0.1 1.1v1.1 1 1.1 0.6l0.1 0.5v0.5 0.6 0.5 0.6l0.1 0.5v0.5 0.6l0.1 0.5v0.5 0.6l0.1 0.5v0.5l0.1 0.5v0.6 0.5l0.1 0.5v0.5l0.1 0.6v0.5l0.1 0.5 0.1 0.5v0.6 0.1 0.2l0.1 0.1v0.2 0.3 0.3 0.3 0.4 0.6l-0.1 0.7v0.8 0.3 0.4 0.3 0.4 0.3 0.4l0.1 0.3v0.2 0.1 0.2 0.1 0.1 0.2l0.1 0.1v0.1 0.1 0.1 0.1 0.1h0.1 0.1l0.1 0.1h0.1 0.1 0.1 0.1l0.2 0.1h0.1 0.1 0.1 0.2 0.1 0.2 0.1 0.1 0.2 0.1 0.2 0.1l0.4-0.1h0.3l0.7-0.1 0.8-0.1h0.7l0.8-0.1 0.8-0.1 0.8-0.1h0.3l0.4-0.1h0.4l0.4-0.1h0.3l0.4-0.1h0.4l0.4-0.1 0.3-0.1h0.4l0.4-0.1 0.3-0.1h0.4l0.3-0.1 0.4-0.1 0.3-0.1 0.3-0.1h0.4l0.3-0.1 0.3-0.1 0.3-0.1h0.2 0.2l0.3-0.1 0.2 0.1h0.2 0.3l0.2 0.1 0.2 0.1 0.2 0.1 0.2 0.1 0.2 0.1 0.2 0.2 0.2 0.2 0.2 0.1 0.1 0.2 0.1 0.2 0.1 0.2 0.1 0.2 0.1 0.3 0.1 0.2v0.2l0.1 0.3v0.2 0.2 0.3l-0.1 0.2v0.2l-0.1 0.2-0.1 0.3-0.1 0.2-0.1 0.2-0.2 0.2-0.1 0.1-0.2 0.2-0.2 0.2-0.2 0.1-0.2 0.1-0.2 0.1-0.2 0.1-0.2 0.1-0.4 0.1-0.4 0.1-0.4 0.1-0.4 0.1-0.5 0.1-0.4 0.1-0.4 0.1-0.4 0.1-0.4 0.1-0.4 0.1h-0.4l-0.4 0.1-0.5 0.1h-0.4l-0.4 0.1h-0.4l-0.4 0.1-0.4 0.1h-0.4l-0.4 0.1h-0.8l-0.8 0.1-0.8 0.1-0.8 0.1-0.7 0.1-0.8 0.1h-0.4-0.4-0.2l-0.2 0.1h-0.2-0.3-0.2-0.2-0.3-0.2-0.2-0.3l-0.2-0.1h-0.3-0.2l-0.3-0.1h-0.3-0.2l-0.3-0.1-0.3-0.1-0.3-0.1h-0.2l-0.2-0.1-0.1-0.1h-0.2l-0.1-0.1h-0.1l-0.2-0.1-0.1-0.1h-0.2l-0.1-0.1-0.1-0.1-0.2-0.1-0.1-0.1-0.1-0.1-0.2-0.1-0.1-0.1-0.1-0.1-0.2-0.1-0.1-0.1-0.1-0.1-0.1-0.1-0.1-0.1-0.1-0.2-0.1-0.1-0.1-0.1-0.2-0.2-0.1-0.3-0.1-0.2-0.1-0.2-0.1-0.3-0.1-0.2-0.1-0.2-0.1-0.2v-0.3l-0.1-0.2v-0.2l-0.1-0.2v-0.2-0.2l-0.1-0.3v-0.2-0.2l-0.1-0.2v-0.2-0.2-0.2-0.3-0.4l-0.1-0.4v-0.4-0.4-0.4-0.4-0.4l0.1-0.8v-0.7-0.6-0.3-0.2-0.3-0.2-0.1-0.1l-0.1-0.5-0.1-0.5v-0.6l-0.1-0.5v-0.6l-0.1-0.5v-0.6l-0.1-0.5v-0.6l-0.1-0.5v-0.6-0.5l-0.1-0.6v-0.5-0.6l-0.1-0.5v-0.6-0.5l-0.1-0.6v-0.6-0.5-0.6-0.5l-0.1-0.6v-1.1-1.1-1.1-1.2l-0.1-1.1v-1.1l0.1-1.1v-1.1-1.1-1.1-1.1-1.1l0.1-1.1v-1.1l0.1-1.1v-1.1-1.1l0.1-1.1v-1.1l0.1-1.1v-0.2l0.1-0.2v-0.3l0.1-0.2 0.1-0.2 0.1-0.2 0.1-0.2 0.2-0.2 0.1-0.2 0.2-0.2 0.2-0.1 0.1-0.1 0.2-0.2 0.3-0.1 0.2-0.1 0.2-0.1h0.2l0.3-0.1h0.2 0.2z"/><path class="b" d="m405.6 246.2c0-20-8.7-36.3-28.8-36.3h-91.4c-20.1 0-28.6 16.3-28.6 36.3v38.5c0 20 8.5 36.4 28.6 36.4h30.7l21.6 32c0 0 5.6 8.2 11.1 7.4 6.3-1 5.3-11.8 5.3-11.8l1.4-27.6h21.3c20.1 0 28.8-16.4 28.8-36.4z"/><path class="c" d="m312.1 246.8h0.2 0.1l0.2 0.1h0.2l0.1 0.1h0.2l0.1 0.1 0.2 0.1h0.1l0.2 0.1 0.1 0.1 0.1 0.1 0.2 0.2 0.1 0.1 0.1 0.1 0.1 0.1 0.1 0.2 0.1 0.1 0.1 0.2v0.1l0.1 0.2 0.1 0.1v0.2 0.1l0.1 0.2v0.2 0.1 0.2 0.2 0.1 0.2l-0.1 0.2v0.1 0.2l-0.1 0.1-0.1 0.2v0.2l-0.1 0.1-0.1 0.1-0.1 0.2-0.1 0.1-0.1 0.1-0.2 0.1-0.1 0.2-0.1 0.1-0.4 0.3-0.4 0.3-0.5 0.3-0.4 0.3-0.4 0.3-0.4 0.3-0.5 0.3-0.4 0.3-0.4 0.3-0.5 0.3-0.4 0.3-0.4 0.2-0.9 0.6-0.8 0.5-0.9 0.6-0.8 0.5-0.9 0.6-0.8 0.5-0.8 0.5-0.9 0.6-0.4 0.3-0.4 0.2-0.4 0.3-0.4 0.3-0.2 0.1-0.2 0.1-0.1 0.1-0.2 0.1-0.2 0.1-0.2 0.1-0.3 0.2-0.4 0.2-0.3 0.2-0.7 0.3-0.4 0.2-0.3 0.2-0.3 0.1-0.2 0.1-0.1 0.1 0.1 0.1h0.1l0.2 0.1 0.3 0.1 0.2 0.1 0.2 0.1 0.2 0.1 0.2 0.1 0.2 0.1 0.3 0.1h0.2l0.4 0.2 0.5 0.2 0.5 0.1 0.9 0.4 0.4 0.1 0.4 0.1 0.4 0.1 0.3 0.1 0.4 0.2 0.4 0.1 0.4 0.1 0.3 0.1 0.4 0.1 0.4 0.1 0.8 0.2 1.6 0.4 0.3 0.1 0.3 0.1 0.6 0.2 0.6 0.2 0.6 0.1 0.6 0.2 0.6 0.2 1.2 0.4 0.6 0.2 0.5 0.1 0.6 0.2 0.3 0.1h0.3l0.2 0.1 0.3 0.1 0.3 0.1h0.3l0.2 0.1h0.3l0.3 0.1 0.3 0.1h0.1l0.2 0.1h0.1l0.2 0.1h0.1l0.2 0.1 0.1 0.1 0.2 0.1 0.1 0.1 0.1 0.1 0.2 0.1 0.1 0.2 0.1 0.1 0.1 0.1 0.1 0.2v0.1l0.1 0.2 0.1 0.1v0.2l0.1 0.1v0.2l0.1 0.2v0.1 0.2 0.2 0.1 0.2 0.2 0.1l-0.1 0.2v0.2l-0.1 0.1v0.2l-0.1 0.1-0.1 0.2-0.1 0.1-0.1 0.1-0.1 0.2-0.1 0.1-0.1 0.1-0.1 0.1-0.2 0.1-0.1 0.1-0.1 0.1-0.2 0.1-0.1 0.1-0.2 0.1h-0.2l-0.1 0.1h-0.2-0.1l-0.2 0.1h-0.2-0.1-0.2-0.2-0.1l-0.2-0.1h-0.3l-0.3-0.1-0.4-0.1-0.3-0.1h-0.3l-0.3-0.1-0.4-0.1-0.3-0.1-0.3-0.1-0.3-0.1-0.6-0.1-0.6-0.2-0.6-0.2-1.2-0.4-0.6-0.2-0.6-0.1-0.5-0.2-0.6-0.2-0.6-0.1-0.2-0.1-0.3-0.1-1.6-0.4-0.8-0.2-0.4-0.1-0.5-0.2-0.4-0.1-0.4-0.1-0.4-0.1-0.4-0.1-0.4-0.2-0.4-0.1-0.5-0.1-0.4-0.2-0.9-0.3-0.5-0.2-0.5-0.2-0.5-0.2-0.3-0.1-0.3-0.1-0.2-0.1-0.3-0.1-0.3-0.1-0.2-0.1-0.3-0.1-0.4-0.2-0.3-0.1-0.2-0.1-0.1-0.1-0.2-0.1h-0.1l-0.2-0.1-0.2-0.1-0.1-0.1-0.2-0.1-0.2-0.1-0.1-0.1-0.2-0.2-0.1-0.1-0.2-0.1-0.1-0.1-0.2-0.1-0.1-0.1-0.1-0.1-0.2-0.1-0.1-0.1-0.1-0.2-0.2-0.1-0.1-0.1-0.1-0.1-0.1-0.2-0.1-0.1-0.1-0.2-0.1-0.1-0.1-0.2-0.1-0.1-0.1-0.2-0.1-0.2-0.1-0.2-0.1-0.1v-0.2l-0.1-0.2v-0.2l-0.1-0.2v-0.2l-0.1-0.2v-0.2-0.2-0.2-0.2l0.1-0.2v-0.2-0.2l0.1-0.2v-0.2l0.1-0.2v-0.1l0.1-0.2 0.1-0.2 0.1-0.1v-0.2l0.1-0.1 0.1-0.2 0.1-0.1 0.1-0.1 0.1-0.1 0.1-0.2 0.1-0.1 0.1-0.1 0.1-0.2 0.2-0.2 0.2-0.2 0.2-0.1 0.2-0.2 0.2-0.1 0.2-0.2 0.2-0.1 0.2-0.2 0.2-0.1 0.2-0.1 0.2-0.1 0.2-0.2 0.2-0.1 0.2-0.1 0.2-0.1 0.4-0.2 0.4-0.2 0.3-0.2 0.7-0.4 0.4-0.1 0.3-0.2 0.2-0.1 0.2-0.1 0.1-0.1h0.1l0.1-0.1h0.1v-0.1l0.5-0.3 0.4-0.2 0.4-0.3 0.4-0.3 0.9-0.6 0.9-0.5 0.8-0.5 0.9-0.6 0.8-0.5 0.8-0.6 0.9-0.5 0.8-0.5 0.4-0.3 0.4-0.3 0.4-0.2 0.4-0.3 0.4-0.3 0.4-0.3 0.4-0.2 0.4-0.3 0.4-0.3 0.4-0.3 0.4-0.3 0.4-0.3 0.1-0.1 0.1-0.1h0.2l0.1-0.1 0.2-0.1h0.1l0.2-0.1h0.2l0.1-0.1h0.2 0.2 0.1z"/><path class="c" d="m347.9 239.3h0.3l0.2 0.1h0.3l0.2 0.1 0.2 0.1 0.2 0.2 0.2 0.1 0.2 0.2 0.2 0.1 0.1 0.2 0.2 0.2 0.1 0.2 0.1 0.2 0.1 0.2 0.1 0.3v0.2l0.1 0.3v0.2 0.2 0.3 0.2l-0.1 0.3-0.1 0.2-0.1 0.2-0.4 1-0.4 0.9-0.5 1-0.4 0.9-0.4 0.9-0.5 1-0.5 0.9-0.4 0.9-0.5 1-0.4 0.9-0.5 0.9-0.5 0.9-0.4 1-0.5 0.9-0.9 1.8-1 1.8-0.9 1.9-1 1.8-0.9 1.8-0.5 0.9-0.4 0.9-0.5 0.9-0.4 0.9-0.5 0.9-0.4 0.9-0.5 1-0.4 0.9-0.3 0.6-0.3 0.6-0.3 0.6-0.3 0.6-0.2 0.6-0.3 0.7-0.3 0.6-0.2 0.6-0.3 0.7-0.3 0.6-0.5 1.3-0.5 1.3-0.6 1.3-0.3 0.6-0.2 0.7-0.3 0.6-0.3 0.7-0.3 0.6-0.3 0.7-0.3 0.6-0.3 0.7-0.3 0.7-0.2 0.3-0.1 0.3-0.2 0.3-0.1 0.4-0.2 0.3-0.2 0.3-0.2 0.3-0.1 0.4-0.2 0.3-0.2 0.3-0.2 0.3-0.1 0.4-0.2 0.3-0.2 0.3-0.1 0.2-0.2 0.2-0.1 0.2-0.2 0.1-0.2 0.2-0.2 0.1-0.2 0.2-0.2 0.1-0.3 0.1h-0.2l-0.2 0.1h-0.3-0.2-0.3-0.2-0.2l-0.3-0.1-0.2-0.1-0.2-0.1-0.2-0.1-0.2-0.1-0.2-0.2-0.2-0.1-0.2-0.2-0.1-0.2-0.2-0.2-0.1-0.2-0.1-0.2-0.1-0.3-0.1-0.2v-0.2l-0.1-0.3v-0.2-0.2l0.1-0.3v-0.2l0.1-0.3v-0.2l0.1-0.2 0.2-0.2 0.1-0.3 0.2-0.3 0.1-0.3 0.2-0.3 0.2-0.3 0.1-0.3 0.2-0.3 0.1-0.2 0.2-0.3 0.1-0.3 0.2-0.3 0.1-0.3 0.2-0.3 0.1-0.3 0.3-0.6 0.3-0.6 0.3-0.7 0.3-0.6 0.2-0.6 0.3-0.6 0.3-0.6 0.2-0.7 0.3-0.6 0.5-1.3 0.6-1.3 0.5-1.3 0.3-0.6 0.3-0.7 0.2-0.6 0.3-0.7 0.3-0.6 0.3-0.7 0.3-0.7 0.3-0.6 0.3-0.7 0.3-0.6 0.5-1 0.4-0.9 0.5-0.9 0.4-0.9 0.5-1 0.5-0.9 0.4-0.9 0.5-0.9 0.9-1.9 1-1.8 0.9-1.8 1-1.8 0.9-1.8 0.5-0.9 0.4-1 0.5-0.9 0.4-0.9 0.5-0.9 0.4-0.9 0.5-0.9 0.4-0.9 0.5-0.9 0.4-0.9 0.4-1 0.5-0.9 0.4-0.9 0.4-0.9 0.1-0.2 0.1-0.2 0.2-0.2 0.1-0.2 0.2-0.2 0.2-0.2 0.2-0.1 0.2-0.1 0.2-0.1 0.2-0.1 0.2-0.1 0.3-0.1h0.2 0.3 0.2z"/><path class="c" d="m358.5 249.4l0.2 0.1h0.1 0.2l0.2 0.1h0.2l0.2 0.1 0.1 0.1 0.2 0.1 0.2 0.1 0.1 0.1 0.2 0.1 0.1 0.2 0.1 0.1 0.2 0.2 0.2 0.2 0.2 0.2 0.1 0.2 0.2 0.1 0.2 0.2 0.2 0.2 0.2 0.2 0.2 0.2 0.2 0.2 0.2 0.1 0.2 0.2 0.2 0.2 0.2 0.2 0.2 0.2 0.2 0.1 0.2 0.2 0.2 0.2 0.3 0.2 0.2 0.2 0.2 0.1 0.3 0.2 0.2 0.2 0.2 0.2 0.5 0.3 0.5 0.4 0.5 0.3 0.4 0.3 0.5 0.4 0.5 0.3 1.1 0.7 1 0.7 0.5 0.4 0.5 0.3 0.5 0.4 0.5 0.4 0.6 0.3 0.5 0.4 0.5 0.4 0.2 0.2 0.3 0.1 0.2 0.2 0.3 0.2 0.2 0.2 0.2 0.2h0.1v0.1h0.1l0.3 0.2 0.6 0.3 0.4 0.2 0.4 0.2 0.2 0.1 0.2 0.1 0.2 0.2 0.2 0.1 0.2 0.1 0.2 0.2 0.2 0.1 0.2 0.2 0.2 0.1 0.2 0.2 0.1 0.1 0.1 0.1 0.1 0.1 0.1 0.1 0.2 0.2 0.1 0.1 0.1 0.2 0.1 0.1 0.1 0.2 0.1 0.3 0.2 0.2v0.3l0.1 0.2v0.1l0.1 0.2v0.1 0.2 0.2 0.1 0.2 0.1 0.2 0.1 0.2 0.1 0.2l-0.1 0.1v0.2l-0.1 0.2v0.3l-0.1 0.2-0.1 0.3-0.1 0.2-0.1 0.2-0.2 0.2-0.1 0.2-0.1 0.2-0.1 0.2-0.2 0.2-0.1 0.2-0.1 0.1-0.2 0.2-0.1 0.1-0.2 0.2-0.1 0.1-0.2 0.2-0.1 0.1-0.2 0.2-0.1 0.1-0.2 0.1-0.1 0.2-0.2 0.1-0.1 0.1-0.2 0.1-0.1 0.1-0.2 0.2-0.3 0.2-0.3 0.2-0.3 0.2-0.2 0.2-0.3 0.2-0.3 0.1-0.3 0.2-0.2 0.2-0.3 0.1-0.2 0.1-0.4 0.3-0.3 0.2-0.4 0.1-0.3 0.2-0.4 0.2-0.3 0.2-0.3 0.1-0.4 0.2-0.3 0.2-0.3 0.1-0.4 0.2-0.3 0.2-0.4 0.1-0.3 0.2-0.4 0.1-0.3 0.2-0.3 0.1-0.4 0.2-0.7 0.3-0.6 0.2-0.7 0.3-0.7 0.3-0.7 0.3-0.7 0.2-1.3 0.5-1.3 0.6-0.7 0.2-0.7 0.3-0.6 0.2-0.7 0.3-0.6 0.3-0.7 0.2-0.6 0.3-0.3 0.2-0.3 0.1-0.3 0.1-0.3 0.2-0.4 0.1-0.3 0.2-0.3 0.1-0.3 0.2-0.3 0.1-0.3 0.2-0.3 0.1-0.3 0.2-0.3 0.1-0.3 0.2-0.2 0.1-0.1 0.1h-0.2l-0.2 0.1h-0.2-0.2l-0.2 0.1h-0.1-0.2-0.2l-0.2-0.1h-0.2l-0.2-0.1h-0.2l-0.1-0.1-0.2-0.1-0.2-0.1-0.1-0.1-0.2-0.1-0.1-0.1-0.2-0.2-0.1-0.1-0.1-0.1-0.1-0.2-0.1-0.2-0.1-0.1-0.1-0.2-0.1-0.2v-0.2l-0.1-0.1v-0.2-0.2-0.2l-0.1-0.2 0.1-0.2v-0.2-0.2l0.1-0.2v-0.1l0.1-0.2 0.1-0.2 0.1-0.2 0.1-0.1 0.1-0.2 0.1-0.1 0.1-0.2 0.1-0.1 0.2-0.1 0.1-0.1 0.2-0.1 0.2-0.1 0.3-0.2 0.3-0.2 0.4-0.2 0.3-0.2 0.4-0.1 0.3-0.2 0.3-0.2 0.4-0.1 0.3-0.2 0.4-0.1 0.3-0.2 0.3-0.2 0.4-0.1 0.3-0.2 0.7-0.3 0.7-0.2 0.7-0.3 0.7-0.3 0.7-0.3 0.6-0.2 0.7-0.3 1.4-0.5 1.3-0.5 0.7-0.3 0.6-0.3 0.7-0.2 0.6-0.3 0.7-0.3 0.6-0.2 0.3-0.2 0.3-0.1 0.3-0.1 0.4-0.2 0.3-0.1 0.3-0.2 0.3-0.1 0.3-0.1 0.3-0.2 0.3-0.1 0.3-0.2 0.3-0.1 0.3-0.2 0.3-0.1 0.3-0.2 0.3-0.2 0.3-0.1 0.3-0.2 0.2-0.1 0.2-0.1 0.2-0.2 0.2-0.1 0.2-0.1 0.3-0.2 0.2-0.1 0.2-0.2 0.2-0.1 0.2-0.2 0.1-0.1h0.1l0.1-0.1 0.1-0.1 0.1-0.1 0.1-0.1-0.3-0.2-0.7-0.3-0.3-0.2-0.1-0.1-0.2-0.1-0.2-0.1-0.1-0.1-0.2-0.1-0.2-0.1-0.2-0.2-0.2-0.2-0.3-0.2-0.2-0.1-0.2-0.2-0.2-0.2-0.5-0.3-0.5-0.3-0.4-0.4-0.5-0.3-0.5-0.4-0.5-0.3-0.5-0.4-1-0.7-1.1-0.7-0.5-0.3-0.5-0.4-0.5-0.4-0.5-0.3-0.6-0.4-0.5-0.4-0.2-0.2-0.3-0.2-0.3-0.2-0.2-0.2-0.3-0.2-0.2-0.2-0.3-0.2-0.2-0.2-0.3-0.2-0.2-0.2-0.3-0.2-0.2-0.2-0.3-0.3-0.2-0.2-0.3-0.2-0.2-0.2-0.2-0.3-0.3-0.2-0.2-0.2-0.2-0.3-0.3-0.2-0.2-0.2-0.2-0.3-0.2-0.2-0.1-0.2-0.1-0.1-0.1-0.2-0.1-0.2-0.1-0.1-0.1-0.2-0.1-0.2v-0.2-0.2l-0.1-0.2v-0.1-0.2-0.2l0.1-0.2v-0.2-0.2l0.1-0.2 0.1-0.1v-0.2l0.1-0.2 0.1-0.2 0.1-0.1 0.1-0.2 0.2-0.1 0.1-0.1 0.1-0.2 0.2-0.1 0.2-0.1 0.1-0.1 0.2-0.1h0.2l0.1-0.1 0.2-0.1h0.2 0.2l0.2-0.1h0.2z"/><path class="b" d="m579.4 284.9c0-20.1 8.7-36.4 28.8-36.4h91.3c20.1 0 28.6 16.3 28.6 36.4v38.4c0 20.1-8.5 36.4-28.6 36.4h-30.6l-21.7 32.1c0 0-5.5 8.2-11 7.4-6.4-1-5.4-11.8-5.4-11.8l-1.4-27.7h-21.2c-20.1 0-28.8-16.3-28.8-36.4z"/><path class="c" d="m626 279.1h0.2 0.2 0.2 0.2 0.2l0.2 0.1h0.2l0.2 0.1h0.2l0.1 0.1h0.2l0.2 0.1 0.2 0.1 0.2 0.1 0.2 0.1h0.2l0.2 0.1 0.2 0.2 0.2 0.1 0.1 0.1 0.2 0.1 0.2 0.1 0.1 0.2 0.2 0.1 0.2 0.2 0.1 0.1 0.2 0.2 0.1 0.1 0.2 0.2 0.1 0.2 0.1 0.2 0.2 0.1 0.1 0.2 0.1 0.2 0.2 0.2 0.1 0.3 0.1 0.2 0.2 0.3 0.1 0.2 0.1 0.3 0.1 0.2 0.1 0.3 0.1 0.2 0.1 0.3 0.1 0.2 0.1 0.3 0.1 0.3v0.2l0.1 0.3 0.1 0.2v0.3l0.1 0.2v0.3 0.2l0.1 0.3v0.2 0.3l0.1 0.2v0.3 0.2 0.3 0.2l0.1 0.3v0.2 0.3 0.2 0.3 0.2l-0.1 0.3v0.2 0.2 0.3 0.2 0.3 0.2l-0.1 0.2v0.5l-0.1 0.4v0.5l-0.1 0.4v0.5l-0.1 0.4-0.1 0.4v0.5l-0.1 0.4-0.1 0.8-0.1 0.2-0.1 0.2v0.2l-0.1 0.2-0.2 0.2-0.1 0.2-0.1 0.2-0.2 0.2-0.1 0.1-0.2 0.2-0.2 0.1-0.2 0.1-0.2 0.1-0.2 0.1-0.3 0.1-0.2 0.1h-0.2-0.2-0.3-0.2-0.2l-0.3-0.1h-0.2l-0.2-0.1-0.2-0.1-0.2-0.1-0.2-0.2-0.2-0.1-0.2-0.2-0.1-0.1-0.2-0.2-0.1-0.2-0.1-0.2-0.1-0.2-0.1-0.2-0.1-0.2v-0.3l-0.1-0.2v-0.2-0.2-0.3l0.1-0.2 0.1-0.8 0.1-0.4v-0.4l0.1-0.3v-0.4l0.1-0.4 0.1-0.4v-0.4-0.4l0.1-0.4v-0.1-0.2-0.2-0.2-0.2l0.1-0.2v-0.2-0.1-0.2-0.2-0.2-0.1-0.2-0.2-0.2l-0.1-0.1v-0.2-0.2-0.1-0.2-0.1l-0.1-0.2v-0.2-0.1-0.2l-0.1-0.1v-0.2l-0.1-0.1v-0.1-0.2l-0.1-0.1v-0.2l-0.1-0.1v-0.1l-0.1-0.1v-0.2l-0.1-0.1-0.1-0.1v-0.1l-0.1-0.2v-0.1l-0.1-0.1h-0.1v-0.1l-0.1-0.1v-0.1h-0.1v-0.1h-0.1v-0.1h-0.1-0.1-0.1-0.1-0.1-0.1-0.1-0.1-0.1-0.1-0.1l-0.1 0.1h-0.1-0.1l-0.1 0.1h-0.1-0.1l-0.1 0.1h-0.1-0.1l-0.1 0.1h-0.1l-0.1 0.1-0.2 0.1-0.2 0.1-0.2 0.1-0.2 0.1-0.2 0.1-0.2 0.1-0.1 0.2-0.2 0.1-0.2 0.1-0.2 0.2-0.2 0.1-0.2 0.1-0.1 0.2-0.2 0.1-0.2 0.2-0.2 0.1-0.1 0.2-0.2 0.1-0.2 0.2-0.1 0.1-0.2 0.2-0.1 0.1-0.1 0.2-0.2 0.1-0.1 0.1-0.1 0.2-0.1 0.1-0.1 0.1-0.1 0.1-0.1 0.2-0.1 0.1-0.1 0.1-0.1 0.2-0.1 0.2-0.2 0.1-0.1 0.2-0.1 0.2-0.1 0.2-0.1 0.1-0.1 0.2-0.1 0.2-0.1 0.2-0.1 0.2-0.1 0.1-0.1 0.2-0.1 0.2v0.2l-0.1 0.2-0.1 0.2-0.1 0.1-0.1 0.2-0.1 0.2-0.1 0.2v0.2l-0.1 0.2-0.1 0.2-0.1 0.2v0.2l-0.1 0.2-0.1 0.2-0.1 0.2v0.2l-0.1 0.2-0.1 0.2v0.2l-0.1 0.2-0.1 0.2v0.2l-0.1 0.2v0.2l-0.1 0.2v0.2l-0.1 0.2v0.2l-0.1 0.2v0.2l-0.1 0.3v0.2l-0.1 0.2v0.2l-0.1 0.2v0.2l-0.1 0.5v0.4l-0.1 0.4-0.1 0.5v0.4l-0.1 0.4v0.5l-0.1 0.4v0.5 0.4 0.4l-0.1 0.5v0.4 0.5 0.4 0.5 0.4l0.1 0.5v0.4 0.5 0.4l0.1 0.4v0.5 0.4l0.1 0.5v0.4l0.1 0.5v0.4l0.1 0.4 0.1 0.5v0.4l0.1 0.4 0.1 0.4 0.1 0.5 0.1 0.4 0.1 0.4 0.1 0.4 0.1 0.4 0.1 0.5v0.1 0.1l0.1 0.2v0.1l0.1 0.1v0.2 0.1l0.1 0.1v0.2l0.1 0.1v0.1l0.1 0.1v0.2l0.1 0.1v0.1l0.1 0.1v0.1l0.1 0.1v0.2l0.1 0.1v0.1l0.1 0.1 0.1 0.1v0.1l0.1 0.1v0.1l0.1 0.1 0.1 0.1v0.1l0.1 0.1 0.1 0.1 0.1 0.1v0.1l0.1 0.1 0.1 0.1 0.1 0.1 0.1 0.1v0.1h0.1l0.1 0.1v0.1h0.1l0.1 0.1v0.1h0.1l0.1 0.1v0.1h0.1l0.1 0.1 0.1 0.1h0.1l0.1 0.1 0.1 0.1h0.1v0.1h0.1 0.1v0.1h0.1 0.1l0.1 0.1h0.1l0.1 0.1h0.1l0.1 0.1h0.1 0.1 0.1l0.1 0.1h0.1 0.1 0.1 0.1 0.1v0.1h0.1 0.1 0.1 0.1 0.1 0.1 0.1 0.1 0.1 0.1 0.1 0.1v-0.1h0.1 0.1 0.1 0.1 0.1l0.1-0.1h0.1 0.1 0.1l0.1-0.1h0.1 0.1l0.2-0.1h0.1l0.1-0.1h0.1l0.1-0.1h0.1 0.1l0.1-0.1 0.1-0.1h0.2l0.1-0.1h0.1l0.1-0.1 0.1-0.1h0.2l0.1-0.1 0.1-0.1 0.1-0.1 0.2-0.1 0.2-0.1 0.2-0.1 0.2-0.1h0.2l0.2-0.1h0.3l0.2-0.1h0.2l0.3 0.1h0.2 0.2l0.2 0.1 0.3 0.1 0.2 0.1 0.2 0.1 0.2 0.1 0.1 0.2 0.2 0.1 0.2 0.2 0.1 0.2 0.2 0.1 0.1 0.2 0.1 0.3 0.1 0.2v0.2l0.1 0.2v0.2l0.1 0.3v0.2l-0.1 0.2v0.3 0.2l-0.1 0.2-0.1 0.2-0.1 0.2-0.1 0.2-0.1 0.2-0.2 0.2-0.1 0.2-0.2 0.1-0.2 0.2-0.2 0.1-0.1 0.1-0.2 0.2-0.2 0.1-0.2 0.1-0.2 0.1-0.2 0.1-0.2 0.1-0.2 0.1-0.1 0.1-0.2 0.1-0.2 0.1-0.2 0.1-0.2 0.1-0.2 0.1h-0.2l-0.2 0.1-0.2 0.1-0.2 0.1h-0.2l-0.2 0.1h-0.2l-0.2 0.1-0.2 0.1h-0.2l-0.2 0.1h-0.2-0.1l-0.2 0.1h-0.2-0.2l-0.2 0.1h-0.2-0.2-0.2l-0.2 0.1h-0.2-0.2-0.2-0.2-0.2-0.2-0.2l-0.2-0.1h-0.2-0.1-0.2-0.2l-0.2-0.1h-0.2-0.2l-0.2-0.1h-0.2l-0.1-0.1h-0.2l-0.2-0.1h-0.2l-0.2-0.1h-0.1l-0.2-0.1-0.2-0.1h-0.2l-0.1-0.1-0.2-0.1-0.2-0.1-0.2-0.1h-0.1l-0.2-0.1-0.1-0.1-0.2-0.1-0.2-0.1-0.1-0.1-0.2-0.1-0.1-0.1-0.2-0.1-0.1-0.1-0.2-0.1-0.1-0.2-0.2-0.1-0.1-0.1-0.2-0.1-0.1-0.1-0.2-0.2-0.1-0.1-0.1-0.1-0.2-0.2-0.1-0.1-0.1-0.1-0.2-0.2-0.1-0.1-0.1-0.1-0.1-0.2-0.1-0.1-0.2-0.2-0.1-0.1-0.1-0.2-0.1-0.1-0.1-0.2-0.1-0.2-0.1-0.1-0.1-0.2-0.1-0.1-0.1-0.2-0.1-0.2-0.1-0.1-0.1-0.2-0.1-0.2-0.1-0.1-0.1-0.2-0.1-0.2-0.1-0.2-0.1-0.2-0.1-0.1v-0.2l-0.1-0.2-0.1-0.2-0.1-0.2v-0.2l-0.1-0.1-0.1-0.2-0.1-0.2v-0.2l-0.1-0.2v-0.2l-0.1-0.2-0.1-0.2v-0.2l-0.1-0.2v-0.2l-0.1-0.5-0.2-0.5-0.1-0.4-0.1-0.5-0.1-0.5-0.1-0.5-0.1-0.5-0.1-0.5v-0.5l-0.1-0.5-0.1-0.5-0.1-0.5v-0.5l-0.1-0.5v-0.5l-0.1-0.5v-0.5l-0.1-0.5v-0.5-0.5-0.5-0.5l-0.1-0.6v-0.5-0.5-0.5l0.1-0.5v-0.5-0.6-0.5l0.1-0.5v-0.5l0.1-0.5v-0.5l0.1-0.5 0.1-0.6v-0.5l0.1-0.5 0.1-0.5 0.1-0.2v-0.3l0.1-0.3v-0.2l0.1-0.3v-0.2l0.1-0.3v-0.2l0.1-0.3 0.1-0.2v-0.3l0.1-0.2 0.1-0.3v-0.2l0.1-0.3 0.1-0.2 0.1-0.3v-0.2l0.1-0.3 0.1-0.2 0.1-0.3 0.1-0.2 0.1-0.3 0.1-0.2 0.1-0.2v-0.3l0.1-0.2 0.1-0.3 0.1-0.2 0.1-0.2 0.2-0.3 0.1-0.2 0.1-0.3 0.1-0.2 0.1-0.2 0.1-0.3 0.1-0.2 0.1-0.2 0.2-0.3 0.1-0.2 0.1-0.2 0.1-0.2 0.2-0.3 0.1-0.2 0.1-0.2 0.2-0.2 0.1-0.3 0.2-0.2 0.1-0.2 0.2-0.2 0.1-0.2 0.1-0.2 0.2-0.2 0.1-0.2 0.2-0.2 0.2-0.2 0.1-0.2 0.2-0.2 0.2-0.2 0.2-0.2 0.2-0.2 0.2-0.2 0.2-0.2 0.2-0.2 0.2-0.2 0.2-0.2 0.2-0.2 0.3-0.2 0.2-0.2 0.3-0.2 0.2-0.2 0.3-0.2 0.2-0.2 0.3-0.2 0.2-0.2 0.3-0.2 0.3-0.1 0.3-0.2 0.2-0.2 0.3-0.2 0.3-0.1 0.3-0.2 0.3-0.1 0.3-0.2 0.2-0.1h0.1l0.2-0.1 0.2-0.1h0.1l0.2-0.1h0.1l0.2-0.1 0.2-0.1h0.1l0.2-0.1h0.2 0.1l0.2-0.1h0.2l0.2-0.1h0.1 0.2l0.2-0.1h0.2 0.2 0.1 0.2 0.2 0.2z"/><path class="c" d="m653.3 283.2h0.3 0.2 0.2 0.3l0.2 0.1h0.2 0.3l0.2 0.1h0.2l0.2 0.1h0.3l0.2 0.1h0.2l0.3 0.1 0.2 0.1h0.2l0.2 0.1 0.2 0.1 0.2 0.1 0.1 0.2 0.2 0.1 0.2 0.2 0.1 0.1 0.1 0.2 0.2 0.2 0.1 0.2 0.1 0.2 0.1 0.2v0.2l0.1 0.2v0.2 0.2 0.3 0.2 0.2l-0.1 0.2v0.2l-0.1 0.2-0.1 0.3-0.1 0.1-0.1 0.2-0.1 0.2-0.2 0.2-0.1 0.1-0.2 0.2-0.2 0.1-0.1 0.1-0.2 0.2-0.2 0.1h-0.2l-0.2 0.1h-0.3l-0.2 0.1h-0.2-0.2-0.2-0.3l-0.2-0.1h-0.2l-0.1-0.1h-0.1-0.1l-0.1-0.1h-0.1-0.2-0.1-0.1l-0.1-0.1h-0.1-0.1-0.1-0.2-0.1-0.1-0.1-0.1-0.2-0.1-0.1-0.1-0.2-0.1-0.1l-0.1 0.1h-0.2-0.1-0.1l-0.2 0.1h-0.1-0.1l-0.2 0.1h-0.1-0.1l-0.2 0.1h-0.1l-0.1 0.1h-0.2l-0.1 0.1h-0.1l-0.2 0.1h-0.1l-0.1 0.1h-0.2l-0.1 0.1h-0.1l-0.1 0.1-0.2 0.1h-0.1l-0.1 0.1-0.2 0.1-0.1 0.1h-0.1l-0.1 0.1-0.2 0.1-0.1 0.1-0.1 0.1h-0.1l-0.1 0.1-0.2 0.1-0.1 0.1-0.1 0.1-0.1 0.1-0.1 0.1-0.1 0.1-0.1 0.1-0.2 0.1-0.1 0.1-0.1 0.1-0.1 0.1-0.1 0.1-0.1 0.1-0.1 0.1-0.1 0.1-0.1 0.1v0.1l-0.1 0.1-0.1 0.1-0.1 0.1-0.1 0.1-0.1 0.1-0.1 0.1v0.1l-0.1 0.1-0.1 0.1-0.1 0.2v0.1l-0.1 0.1-0.1 0.1v0.1l-0.1 0.1v0.1l-0.1 0.2v0.1l-0.1 0.1v0.1l-0.1 0.1v0.1l-0.1 0.1v0.1 0.2l-0.1 0.1v0.1 0.1l-0.1 0.1v0.1 0.1 0.1 0.2l-0.1 0.1v0.1 0.1 0.1 0.1 0.1 0.1 0.2 0.1 0.1 0.1 0.1l0.1 0.1v0.1 0.2 0.1 0.1l0.1 0.1v0.1 0.1l0.1 0.1v0.2l0.1 0.1v0.1l0.1 0.1v0.1l0.1 0.1v0.2l0.1 0.1 0.1 0.1v0.1l0.1 0.2 0.1 0.1 0.1 0.1 0.1 0.2 0.1 0.1 0.1 0.1v0.2l0.1 0.1 0.2 0.1 0.1 0.2 0.1 0.1 0.1 0.1 0.2 0.3 0.2 0.3 0.3 0.2 0.2 0.3 0.2 0.2 0.1 0.2 0.2 0.2 0.2 0.1 0.1 0.2 0.2 0.2 0.2 0.2 0.2 0.1 0.3 0.4 0.4 0.4 0.4 0.3 0.4 0.4 0.4 0.4 0.4 0.4 0.5 0.4 0.5 0.5 0.2 0.3 0.3 0.2 0.3 0.3 0.2 0.3 0.3 0.3 0.3 0.3 0.3 0.3 0.3 0.3 0.2 0.3 0.3 0.3 0.3 0.3 0.3 0.3 0.3 0.4 0.3 0.3 0.2 0.3 0.3 0.4 0.3 0.3 0.2 0.4 0.2 0.2 0.1 0.2 0.1 0.1 0.1 0.2 0.2 0.2 0.1 0.2 0.1 0.2 0.1 0.2 0.1 0.2 0.1 0.2 0.2 0.2 0.1 0.1 0.1 0.2 0.1 0.2 0.1 0.2 0.1 0.2 0.1 0.2 0.1 0.2 0.1 0.2v0.3l0.1 0.2 0.1 0.2 0.1 0.2 0.1 0.2v0.2l0.1 0.2 0.1 0.3v0.2l0.1 0.2v0.2l0.1 0.3v0.2 0.2 0.3l0.1 0.2v0.3 0.2 0.2 0.3l-0.1 0.2v0.3 0.2l-0.1 0.3v0.3l-0.1 0.2-0.1 0.3-0.1 0.2-0.1 0.2-0.1 0.3-0.1 0.2-0.1 0.3-0.1 0.2-0.2 0.2-0.1 0.3-0.2 0.2-0.2 0.2-0.1 0.2-0.2 0.2-0.2 0.2-0.2 0.2-0.2 0.2-0.2 0.1-0.2 0.2-0.3 0.2-0.2 0.1-0.2 0.2-0.3 0.2-0.2 0.1-0.3 0.1-0.2 0.2-0.3 0.1-0.3 0.1-0.2 0.1-0.3 0.2-0.3 0.1-0.3 0.1-0.3 0.1-0.4 0.1-0.3 0.1-0.3 0.1-0.4 0.1-0.3 0.1h-0.3l-0.4 0.1h-0.3l-0.3 0.1h-0.3l-0.4 0.1h-0.3-0.3l-0.4 0.1h-0.3-0.2-0.2-0.2l-0.2-0.1h-0.2l-0.3-0.1-0.2-0.1-0.2-0.1-0.1-0.1-0.2-0.1-0.2-0.2-0.2-0.1-0.1-0.2-0.1-0.2-0.2-0.2-0.1-0.2-0.1-0.2v-0.2l-0.1-0.2-0.1-0.2v-0.2-0.2-0.2-0.3-0.2-0.2l0.1-0.2 0.1-0.2 0.1-0.2 0.1-0.2 0.1-0.2 0.1-0.2 0.2-0.2 0.1-0.1 0.2-0.2 0.1-0.1 0.2-0.1 0.2-0.1 0.2-0.1 0.2-0.1 0.2-0.1h0.2l0.3-0.1h0.2 0.2 0.3 0.2l0.2-0.1h0.3 0.2l0.2-0.1h0.2 0.2l0.3-0.1h0.2l0.2-0.1h0.2l0.2-0.1 0.2-0.1h0.2l0.2-0.1 0.2-0.1h0.1l0.2-0.1 0.1-0.1h0.2l0.1-0.1 0.1-0.1h0.1l0.1-0.1 0.1-0.1h0.1l0.1-0.1h0.1v-0.1h0.1v-0.1h0.1v-0.1l0.1-0.1v-0.1h0.1v-0.1-0.1h0.1v-0.1-0.1-0.1-0.1-0.1-0.1l-0.1-0.1v-0.1-0.1-0.1-0.1l-0.1-0.1v-0.1-0.1-0.1l-0.1-0.1v-0.1l-0.1-0.1v-0.1l-0.1-0.1v-0.1l-0.1-0.2v-0.1l-0.1-0.1-0.1-0.1v-0.2l-0.1-0.1-0.1-0.1-0.1-0.1-0.1-0.2v-0.1l-0.1-0.2-0.1-0.1-0.1-0.1-0.1-0.2-0.1-0.1-0.1-0.1-0.1-0.2-0.2-0.3-0.2-0.2-0.2-0.3-0.2-0.3-0.3-0.3-0.2-0.3-0.3-0.2-0.2-0.3-0.2-0.3-0.3-0.2-0.2-0.3-0.3-0.3-0.2-0.2-0.3-0.3-0.2-0.2-0.3-0.3-0.2-0.2-0.2-0.3-0.5-0.4-0.5-0.4-0.4-0.4-0.4-0.4-0.4-0.4-0.4-0.4-0.4-0.4-0.4-0.4-0.2-0.2-0.2-0.2-0.2-0.2-0.2-0.2-0.2-0.2-0.2-0.2-0.2-0.3-0.2-0.2-0.3-0.3-0.3-0.3-0.3-0.3-0.2-0.4-0.2-0.2-0.1-0.1-0.2-0.2-0.1-0.2-0.1-0.2-0.2-0.2-0.1-0.2-0.1-0.2-0.2-0.2-0.1-0.2-0.1-0.2-0.2-0.2-0.1-0.2-0.1-0.2-0.1-0.3-0.2-0.2-0.1-0.2-0.1-0.3-0.1-0.2-0.1-0.3-0.1-0.2-0.1-0.3-0.1-0.2-0.1-0.3v-0.2l-0.1-0.3v-0.2l-0.1-0.3v-0.2l-0.1-0.3v-0.2-0.3l-0.1-0.2v-0.3-0.2-0.3-0.2-0.3-0.2-0.3l0.1-0.2v-0.2-0.3l0.1-0.2v-0.3-0.2l0.1-0.2v-0.3l0.1-0.2 0.1-0.2v-0.3l0.1-0.2 0.1-0.2 0.1-0.2v-0.2l0.1-0.3 0.1-0.2 0.1-0.2 0.1-0.2 0.1-0.2 0.1-0.2 0.1-0.2 0.1-0.2 0.2-0.2 0.1-0.2 0.1-0.2 0.1-0.2 0.1-0.2 0.2-0.2 0.1-0.2 0.1-0.2 0.2-0.2 0.1-0.1 0.2-0.2 0.1-0.2 0.2-0.2 0.1-0.1 0.2-0.2 0.1-0.2 0.2-0.2 0.1-0.1 0.2-0.2 0.2-0.1 0.1-0.2 0.2-0.1 0.2-0.2 0.2-0.1 0.1-0.2 0.2-0.1 0.2-0.2 0.2-0.1 0.2-0.2 0.1-0.1 0.2-0.1 0.2-0.2 0.2-0.1 0.2-0.1 0.2-0.1 0.2-0.1 0.2-0.2 0.2-0.1 0.2-0.1 0.2-0.1 0.2-0.1 0.2-0.1 0.2-0.1 0.2-0.1 0.2-0.1 0.2-0.1 0.2-0.1 0.2-0.1 0.2-0.1h0.2l0.3-0.1 0.2-0.1 0.2-0.1h0.2l0.2-0.1 0.2-0.1h0.3l0.2-0.1h0.2l0.2-0.1h0.3l0.2-0.1h0.2l0.2-0.1h0.3 0.2 0.2l0.2-0.1h0.3 0.2 0.2 0.3 0.2z"/><path class="c" d="m677.1 286h0.3 0.2 0.2l0.2 0.1h0.2 0.3 0.2l0.2 0.1h0.2 0.2l0.3 0.1h0.2l0.2 0.1h0.2l0.2 0.1 0.2 0.1h0.3l0.2 0.1 0.2 0.1h0.2l0.2 0.1 0.2 0.1 0.2 0.1 0.2 0.1 0.3 0.1 0.2 0.1 0.2 0.1 0.2 0.1 0.1 0.1 0.2 0.1 0.2 0.2 0.2 0.1 0.1 0.2 0.2 0.1 0.1 0.2 0.1 0.2 0.1 0.2 0.1 0.2 0.1 0.2 0.1 0.2v0.2l0.1 0.2v0.2 0.2 0.2l-0.1 0.2v0.3 0.2l-0.1 0.2-0.1 0.2-0.1 0.2-0.1 0.2-0.1 0.1-0.1 0.2-0.2 0.2-0.1 0.1-0.2 0.1-0.2 0.2-0.2 0.1-0.2 0.1-0.2 0.1-0.2 0.1h-0.2l-0.2 0.1h-0.2-0.2-0.2-0.2l-0.3-0.1h-0.2l-0.2-0.1h-0.2l-0.2-0.1-0.2-0.1-0.1-0.1h-0.1l-0.1-0.1h-0.1l-0.1-0.1h-0.1l-0.1-0.1h-0.1l-0.1-0.1h-0.1-0.1l-0.1-0.1h-0.1-0.1l-0.1-0.1h-0.2-0.1l-0.1-0.1h-0.1-0.1-0.1-0.1-0.2l-0.1-0.1h-0.1-0.1-0.1-0.1-0.2-0.1-0.1-0.1-0.1-0.2-0.1-0.1l-0.1 0.1h-0.2-0.1-0.1-0.1-0.1l-0.2 0.1h-0.1-0.1-0.1l-0.1 0.1h-0.1-0.2l-0.1 0.1h-0.1-0.1l-0.1 0.1h-0.1l-0.1 0.1h-0.2l-0.1 0.1h-0.1l-0.1 0.1h-0.1l-0.1 0.1h-0.1l-0.1 0.1h-0.1l-0.1 0.1-0.1 0.1h-0.1l-0.1 0.1h-0.1l-0.1 0.1-0.1 0.1-0.1 0.1-0.1 0.1h-0.1l-0.1 0.1-0.1 0.1v0.1h-0.1l-0.1 0.1-0.1 0.1v0.1h-0.1l-0.1 0.1v0.1l-0.1 0.1-0.1 0.1-0.1 0.1v0.1l-0.1 0.1-0.1 0.1v0.1l-0.1 0.1v0.1 0.1h-0.1v0.1 0.1l-0.1 0.1v0.1 0.1l-0.1 0.1v0.1 0.1 0.1l-0.1 0.1v0.1 0.1 0.1 0.1 0.1 0.1 0.1 0.2 0.1 0.1 0.1 0.1 0.1 0.1l0.1 0.2v0.1 0.1 0.1l0.1 0.2v0.1 0.1h0.1v0.1 0.1l0.1 0.1v0.1 0.1h0.1v0.2l0.1 0.1 0.1 0.2 0.1 0.1v0.1l0.1 0.2 0.1 0.1 0.1 0.1 0.1 0.2 0.1 0.1 0.2 0.2 0.1 0.1 0.1 0.2 0.1 0.1 0.2 0.2 0.1 0.1 0.1 0.2 0.2 0.1 0.1 0.1 0.2 0.2 0.1 0.1 0.2 0.2 0.3 0.3 0.3 0.3 0.1 0.1 0.1 0.1 0.2 0.1 0.1 0.1 0.1 0.2 0.2 0.1 0.1 0.1 0.1 0.1 0.3 0.2 0.3 0.3 0.4 0.2 0.3 0.3 0.3 0.2 0.4 0.3 0.7 0.5 0.3 0.2 0.4 0.3 0.3 0.3 0.4 0.2 0.4 0.3 0.4 0.3 0.1 0.2 0.2 0.1 0.2 0.2 0.2 0.1 0.2 0.2 0.2 0.1 0.1 0.2 0.2 0.2 0.2 0.2 0.2 0.1 0.2 0.2 0.1 0.2 0.2 0.2 0.2 0.1 0.2 0.2 0.1 0.2 0.2 0.2 0.2 0.2 0.1 0.2 0.2 0.3 0.2 0.2 0.1 0.2 0.2 0.2 0.1 0.2 0.1 0.3 0.2 0.2 0.1 0.2 0.1 0.3 0.2 0.2 0.1 0.2 0.1 0.3 0.1 0.2v0.2l0.1 0.2 0.1 0.2 0.1 0.3 0.1 0.2v0.2l0.1 0.2v0.3l0.1 0.2v0.2l0.1 0.2v0.3 0.2l0.1 0.2v0.2 0.3 0.2 0.2 0.2 0.3 0.2 0.2 0.2 0.2 0.3l-0.1 0.2v0.2 0.2l-0.1 0.2v0.2l-0.1 0.2v0.2l-0.1 0.3v0.2l-0.1 0.2-0.1 0.2v0.2l-0.1 0.2-0.1 0.2-0.1 0.1-0.1 0.2-0.1 0.2-0.1 0.2-0.1 0.2-0.1 0.2-0.1 0.2-0.1 0.1-0.1 0.2-0.1 0.2-0.1 0.2-0.1 0.1-0.1 0.2-0.2 0.2-0.1 0.1-0.1 0.2-0.1 0.2-0.2 0.1-0.1 0.2-0.1 0.1-0.2 0.2-0.1 0.1-0.2 0.2-0.1 0.1-0.2 0.2-0.1 0.1-0.2 0.1-0.1 0.2-0.2 0.1-0.2 0.1-0.1 0.2-0.2 0.1-0.1 0.1-0.2 0.1-0.2 0.1-0.2 0.1-0.1 0.2-0.2 0.1-0.2 0.1-0.2 0.1-0.1 0.1-0.2 0.1-0.2 0.1-0.2 0.1h-0.2l-0.2 0.1-0.2 0.1-0.2 0.1-0.2 0.1h-0.2l-0.2 0.1-0.2 0.1h-0.2l-0.2 0.1-0.2 0.1h-0.2l-0.2 0.1h-0.2l-0.2 0.1h-0.2-0.2l-0.2 0.1h-0.2-0.2l-0.2 0.1h-0.3-0.2-0.2-0.2-0.2-0.2-0.3-0.2-0.2-0.2-0.2-0.3-0.2l-0.2-0.1h-0.2-0.2l-0.3-0.1h-0.2l-0.2-0.1h-0.2l-0.2-0.1h-0.2l-0.2-0.1-0.2-0.1-0.2-0.1-0.2-0.2-0.1-0.1-0.2-0.2-0.1-0.1-0.2-0.2-0.1-0.2-0.1-0.1-0.1-0.2-0.1-0.2-0.1-0.2v-0.3l-0.1-0.2v-0.2-0.2-0.2-0.2l0.1-0.2v-0.2l0.1-0.3 0.1-0.2 0.1-0.1 0.1-0.2 0.1-0.2 0.1-0.2 0.2-0.2 0.1-0.1 0.2-0.1 0.2-0.2 0.1-0.1 0.2-0.1 0.2-0.1 0.2-0.1h0.2l0.2-0.1h0.3 0.2 0.2 0.2 0.2l0.2 0.1h0.2 0.1 0.1l0.1 0.1h0.1 0.1 0.1 0.1 0.2 0.1 0.1l0.1 0.1h0.1 0.1 0.1l0.1-0.1h0.2 0.1 0.1 0.1 0.1 0.1 0.1 0.1l0.1-0.1h0.1 0.2 0.1l0.1-0.1h0.1 0.1l0.1-0.1h0.1 0.1l0.1-0.1h0.1 0.1l0.1-0.1h0.1l0.1-0.1h0.1l0.1-0.1h0.1l0.1-0.1h0.1l0.1-0.1h0.1l0.1-0.1 0.1-0.1h0.1l0.1-0.1h0.1v-0.1l0.1-0.1h0.1l0.1-0.1 0.1-0.1h0.1v-0.1l0.1-0.1 0.1-0.1h0.1l0.1-0.1v-0.1l0.1-0.1h0.1v-0.1l0.1-0.1 0.1-0.1v-0.1h0.1l0.1-0.1v-0.1l0.1-0.1v-0.1h0.1v-0.1l0.1-0.1v-0.1l0.1-0.1v-0.1l0.1-0.1v-0.1l0.1-0.1v-0.1-0.1l0.1-0.1v-0.1-0.1l0.1-0.1v-0.1-0.1l0.1-0.1v-0.1-0.1-0.1-0.1-0.1-0.1-0.1-0.1-0.1-0.1-0.1-0.1-0.1-0.1-0.1-0.1-0.1-0.1l-0.1-0.1v-0.1-0.1-0.1l-0.1-0.1v-0.1-0.1l-0.1-0.1v-0.1l-0.1-0.1v-0.2l-0.1-0.1v-0.1l-0.1-0.1v-0.1l-0.1-0.1-0.1-0.2v-0.1l-0.1-0.1-0.1-0.1-0.1-0.1-0.1-0.1-0.1-0.2v-0.1l-0.1-0.1-0.1-0.1-0.2-0.1-0.1-0.2-0.1-0.1-0.1-0.1-0.1-0.1-0.1-0.1-0.2-0.2-0.1-0.1-0.1-0.1-0.1-0.1-0.2-0.1-0.1-0.2-0.2-0.1-0.1-0.1-0.2-0.1-0.1-0.1-0.3-0.3-0.3-0.2-0.4-0.3-0.3-0.2-0.3-0.3-0.4-0.2-0.7-0.5-0.3-0.3-0.4-0.3-0.4-0.2-0.3-0.3-0.4-0.3-0.3-0.3-0.2-0.1-0.2-0.2-0.2-0.1-0.2-0.2-0.1-0.1-0.2-0.2-0.2-0.1-0.2-0.2-0.3-0.3-0.4-0.4-0.2-0.2-0.1-0.1-0.2-0.2-0.2-0.2-0.2-0.2-0.2-0.2-0.1-0.2-0.2-0.2-0.2-0.2-0.2-0.2-0.2-0.2-0.1-0.3-0.2-0.2-0.2-0.2-0.2-0.3-0.1-0.2-0.2-0.3-0.1-0.2-0.2-0.3-0.2-0.3-0.1-0.2-0.1-0.3-0.1-0.2-0.1-0.1v-0.2l-0.1-0.1v-0.2l-0.1-0.1-0.1-0.2v-0.1l-0.1-0.2v-0.1l-0.1-0.2v-0.2l-0.1-0.2v-0.3l-0.1-0.2v-0.3l-0.1-0.2v-0.3-0.2l-0.1-0.3v-0.2-0.3-0.2-0.3-0.2-0.2-0.3-0.2l0.1-0.3v-0.2-0.2l0.1-0.3v-0.2l0.1-0.2v-0.3l0.1-0.2v-0.2l0.1-0.2 0.1-0.3 0.1-0.2 0.1-0.2v-0.2l0.1-0.2 0.1-0.2 0.1-0.2 0.1-0.2 0.2-0.2 0.1-0.2 0.1-0.2 0.1-0.2 0.1-0.2 0.1-0.2 0.2-0.1 0.1-0.2 0.2-0.2 0.1-0.2 0.1-0.1 0.2-0.2 0.1-0.2 0.2-0.1 0.1-0.2 0.2-0.1 0.1-0.2 0.2-0.1 0.2-0.2 0.1-0.1 0.2-0.1 0.2-0.2 0.2-0.1 0.1-0.1 0.2-0.2 0.2-0.1 0.2-0.1 0.1-0.1 0.2-0.1 0.2-0.1 0.2-0.1 0.2-0.1 0.2-0.1 0.2-0.1 0.2-0.1 0.2-0.1 0.2-0.1 0.2-0.1 0.2-0.1h0.2l0.2-0.1 0.2-0.1 0.2-0.1h0.2l0.2-0.1 0.2-0.1h0.2l0.2-0.1h0.2l0.2-0.1h0.2 0.2l0.3-0.1h0.2l0.2-0.1h0.2 0.2 0.2 0.2l0.3-0.1h0.2 0.2 0.2 0.2z"/><path class="d" d="m506.5 568.7c0 0-24.6 7.6-28 40.2-9.8 94.8-6.3 139.9-16.9 158.8-2.3 3.9-103.7-10.5-104.8-7.7-3 7.8-22.7 40.4-19 41.4 11.6 3.4 146.9 40.6 175.8 13.3 26.6-25.2 22.9-75.4 16.9-101.8-7.7-33.5 14.5-142.2-24-144.2z"/><path class="b" d="m695.6 819.9c-25.7-85.5-101.9-271-101.9-271l-41.5-5.5c-5.3-4.1-57.6 36.9-57.6 36.9 0 0-4.4 24.9-8.6 49.7-3.9 22.7-26 46.2-23.9 58.3 4.8 28 39.3 34.7 39.3 34.7 6.1 49.3 10.8 78.7 17.5 103.9"/><path class="d" d="m589 549.3c0 0-12.9 28.4-6.5 69.7 2.7 17.6 23.3 89 28.2 106.2 10.6 37.2-6.9 38-43.9 38.2-5.2 0.1-43.5-3.9-44.2-0.7-2.2 9.1-10 52.1 4.3 55.3 17.3 3.8 107.9 15 134.1-18.8 24.2-31.2 14.8-86.3 5.7-114.8-11.6-36.3-38.6-137.5-77.7-135.1z"/><path class="e" d="m523.3 761.2c5.2 0 10.3 12.6 11.3 28.2 1 15.7-2.4 28.4-7.7 28.5-5.2 0-10.3-12.6-11.3-28.2-1-15.7 2.4-28.4 7.7-28.5z"/><path class="a" d="m532.9 785.2c0 0-20.9-4.9-37.6-14.8-5.1-3-4.4 3.2-3.9 3.8 2.5 3.6 13.7 11.4 12.6 11.9-2.2 1-27-5.5-35.2-8.8-0.9-0.3-9.7-4.2-10.3-2.9-1.2 2.9 3.2 5.5 5.3 6.6 7.1 3.9 30.4 12.2 29.2 11.9-2.2-0.4-21.3-3.7-28.5-5.2-0.5-0.1-10.7-2.3-11-1-0.8 2.7 6.8 5.3 8.6 5.8 7.1 1.9 26.2 7.5 28.6 8.2 1 0.3-7.4-0.1-9.7-0.3-7.3-0.5-14.5-2.2-21.8-2.4-1.4-0.1-6.2-0.6-6.6 1.7-0.3 1.5 3.3 3 4.3 3.3 6.1 2.2 49.8 8.7 62.5 6.5 4.9-0.8 12.8 1.8 12.8 1.8 0 0 9.5-18.3 0.7-26.1z"/><path class="f" d="m475.7 364.3c0 0-31.6-6-46.6 13.7-15.1 19.7-11.7 46.3-34.8 55.7-23.2 9.4-31 54.4-8.6 67.9 22.3 13.5-4.8 38.4-4.8 38.4 0 0-20.1 19.7 4.8 44.6 0 0 18.1 11.3 43.4 18.5 0 0-18.2-17.7-12.8-40 0 0 2 37.1 36.3 40 34.3 2.9 56.6-21.1 56.6-21.1l100.3-24.4c0 0 58.4-15.2 58.4-55.7 0.1-40.5-39.2-35.6-46.7-64.8-7.5-29.1-9.3-57.7-41.8-67-32.5-9.2-72-43.5-103.7-5.8z"/><path class="g" d="m551.8 545.3l-2.9-77.4c-7.8-16.5-53.3-17.4-68.5-9.3-14 7.5-21.3 25.3-17.1 42l37.6 96.2c5.5 19.5 29.4 14.2 38.6 1.8 23.5-31.9 13.5-51.3 12.3-53.3z"/><path class="a" d="m441.8 506.1l-7.1-30.9c0 0-13.7-6.4-17.7 8.5-4.1 15 11.8 26.8 24.8 22.4z"/><path class="a" d="m425.4 466.5c8.4 58.9 15.4 97.8 57.6 96.6 42.3-1.3 96.1-49.9 95.5-101.1-0.6-51.3-35.3-91.8-77.6-90.6-42.3 1.3-76.1 43.8-75.5 95.1z"/><path class="d" d="m520.2 696.7c0 0 31.5 26.1 72.8 13.3 0 0-43 36.2-72.8-13.3z"/><path class="g" d="m535.3 491.9c4.2 8.5-0.8 19.6-11.2 24.7-10.4 5-22.2 2.2-26.4-6.4-4.2-8.5 0.8-19.6 11.2-24.6 10.4-5.1 22.2-2.3 26.4 6.3z"/><path class="g" d="m453.9 516.8c-4.8 8.2-16.7 10.2-26.7 4.5-10-5.8-14.3-17.2-9.5-25.4 4.8-8.3 16.7-10.3 26.7-4.5 10 5.8 14.3 17.1 9.5 25.4z"/><g clip-path="url(#cp1)"></g><path class="f" d="m436.1 417.8c0 0 9.9-17.7 26 0 16.2 17.6 8.7 45.8 47.1 50.6 38.5 4.7 14.4 41.5 41.2 40l2.9 62.9c0 0 70.3-98.4 33.8-155.6-36.5-57.2-125.5-74.7-151 2.1z"/><path class="a" d="m539.9 510.5l13.1-31.7c0 0 17.8-6.7 20.7 8.4 2.8 15.1-18.4 27.5-33.8 23.3z"/><path class="h" d="m330.4 801.5h197.4v19.3h-197.4z"/><path class="h" d="m423 817l-22.9-213.9-235.3 16.4 36.6 197.5z"/><path class="b" d="m408.2 820.3l-21.8-217-234.3 16.8 35.4 200.3z"/><path class="h" d="m274 689.8c11.4-5 24.7 2.9 29.7 17.6 5.1 14.6-0.1 30.5-11.4 35.4-11.4 4.9-24.8-3-29.8-17.6-5.1-14.7 0.1-30.5 11.5-35.4z"/><path class="b" d="m766.3 596c0 0-48.2-23.2-17.1-52.1 31.1-28.9-31.3-49.3-13.5-78.9 17.8-29.5 38.6-16 41.9-35.4 3.4-19.4-21.5-34.3-5.4-62.6 16-28.4 34.7-40.7 57.9-37.1 23.2 3.6-7 61 16.8 72.5 23.8 11.4 20.5 48.1-15.8 80-36.4 31.9 21.9 52.2-12.3 74.2-34.2 22.1-52.5 39.4-52.5 39.4z"/><path class="b" d="m721.2 656.8c0 0 33.8-31.7 7.2-44.8-26.7-13 18.1-46.7 1.4-64.1-16.7-17.4-30.9-1-35.5-14.9-4.7-13.8 0.7-33.7-9.8-53.9-13.8-26.4-38.7-26.1-53.6-7.2-12.1 15.3 24.8 44.7 8.2 60.4-16.7 15.6-10.2 42.6 20.7 56.5 30.9 13.8-10.7 46.2 17.5 53.1 28.2 6.9 43.9 14.9 43.9 14.9z"/><path class="f" d="m814.6 370.2l0.6 0.2 0.6 0.3 0.4 0.5 0.4 0.5 0.3 0.6 0.1 0.6v0.7l-0.2 0.6-0.3 1.1-0.4 1.1-0.4 1.1-0.3 1.1-0.4 1.1-0.4 1.1-0.3 1.2-0.4 1.1-0.3 1.1-0.4 1.1-0.3 1.1-0.3 1.2-0.4 1.1-0.3 1.1-0.4 1.1-0.3 1.2-0.3 1.1-0.3 1.1-0.4 1.2-0.3 1.1-0.3 1.1-0.3 1.1-0.3 1.2-0.3 1.1-0.3 1.2-0.3 1.1-0.3 1.1-0.3 1.2-0.3 1.1-0.3 1.2-0.3 1.1-0.3 1.2-0.3 1.1-0.3 1.1-0.3 1.2-0.2 1.1-0.3 1.2-0.3 1.1-0.3 1.2-0.2 1.2-0.3 1.1-0.3 1.2-0.3 1.1-0.2 1.2-0.3 1.1-0.2 1.2-0.3 1.1-0.3 1.2-0.2 1.2-0.3 1.1-0.5 2.3-0.5 2.4-0.5 2.3-0.5 2.3-0.5 2.3-0.5 2.4-0.4 2.3-0.5 2.3-0.5 2.4-0.4 2.3-0.5 2.4-0.5 2.3-0.4 2.3-0.5 2.4-0.4 2.3-0.9 4.7-1 4.7-0.9 4.7-0.9 4.6-0.9 4.7-0.4 2.3-0.5 2.4-0.4 2.3-0.5 2.3-0.4 2.4-0.5 2.3-0.5 2.3-0.4 2.3-0.5 2.4-0.5 2.3-0.5 2.3-0.5 2.3-0.5 2.3-0.5 2.3-1.3 6.4-1.4 6.4-1.4 6.3-1.4 6.4-1.4 6.3-1.4 6.4-2.9 12.7-2.8 12.8-1.4 6.3-1.4 6.4-1.4 6.3-1.4 6.4-1.4 6.4-1.4 6.3-1.4 6.4-1.4 6.4-0.7 3.2-0.6 3.1-0.7 3.2-0.7 3.2-0.7 3.2-0.7 3.2-0.7 3.2-0.6 3.2-0.7 3.1-0.7 3.2-0.6 3.2-0.7 3.2-0.7 3.2-0.6 3.2-0.7 3.2-0.6 3.2-0.7 3.1-0.6 3.2-0.7 3.2-0.6 3.2-0.7 3.2-0.6 3.2-0.6 3.2-0.7 3.2-0.6 3.1-0.6 3.2-0.6 3.2-0.6 3.2-0.2 0.6-0.3 0.6-0.5 0.5-0.5 0.4-0.6 0.3-0.6 0.1h-0.6l-0.7-0.1-0.6-0.3-0.5-0.3-0.4-0.5-0.4-0.6-0.2-0.6v-0.6-0.6l0.6-3.2 0.6-3.2 0.7-3.2 0.6-3.2 0.6-3.2 0.6-3.2 0.7-3.2 0.6-3.2 0.7-3.2 0.6-3.2 0.7-3.2 0.6-3.2 0.7-3.2 0.6-3.2 0.7-3.2 0.7-3.2 0.6-3.1 0.7-3.2 0.7-3.2 0.6-3.2 0.7-3.2 0.7-3.2 0.7-3.2 0.7-3.2 0.6-3.2 0.7-3.2 0.7-3.1 0.7-3.2 1.4-6.4 1.4-6.4 1.4-6.3 1.4-6.4 1.4-6.4 1.4-6.4 1.4-6.3 1.4-6.4 2.8-12.7 2.8-12.7 1.4-6.4 1.4-6.4 1.4-6.3 1.4-6.4 1.4-6.3 1.4-6.4 0.5-2.3 0.5-2.3 0.5-2.3 0.5-2.3 0.4-2.3 0.5-2.3 0.5-2.3 0.4-2.3 0.5-2.3 0.5-2.4 0.4-2.3 0.5-2.3 0.4-2.3 0.5-2.4 0.9-4.6 0.9-4.7 0.9-4.7 0.9-4.7 0.9-4.7 0.5-2.3 0.4-2.4 0.5-2.3 0.4-2.3 0.5-2.4 0.5-2.3 0.4-2.4 0.5-2.3 0.5-2.4 0.5-2.3 0.5-2.4 0.5-2.3 0.5-2.3 0.5-2.4 0.5-2.3 0.3-1.2 0.2-1.1 0.3-1.2 0.2-1.2 0.3-1.1 0.3-1.2 0.2-1.2 0.3-1.1 0.3-1.2 0.3-1.2 0.2-1.1 0.3-1.2 0.3-1.2 0.3-1.1 0.3-1.2 0.2-1.1 0.3-1.2 0.3-1.2 0.3-1.1 0.3-1.2 0.3-1.1 0.3-1.2 0.3-1.1 0.3-1.2 0.3-1.1 0.3-1.2 0.3-1.1 0.4-1.2 0.3-1.1 0.3-1.2 0.3-1.1 0.3-1.2 0.4-1.1 0.3-1.2 0.3-1.1 0.4-1.1 0.3-1.2 0.3-1.1 0.4-1.2 0.3-1.1 0.4-1.1 0.3-1.2 0.4-1.1 0.4-1.1 0.3-1.2 0.4-1.1 0.4-1.1 0.3-1.2 0.4-1.1 0.4-1.1 0.3-0.6 0.4-0.5 0.4-0.4 0.6-0.3 0.6-0.2 0.7-0.1z"/><path class="f" d="m660.2 487.9l0.5 0.1 0.5 0.2 0.5 0.3 0.4 0.3 0.3 0.5 0.3 0.4 0.3 0.8 0.3 0.7 0.7 1.5 0.7 1.6 0.6 1.5 0.7 1.5 0.6 1.5 0.7 1.6 0.6 1.5 0.7 1.6 0.6 1.5 0.6 1.6 0.7 1.5 0.6 1.6 0.6 1.5 0.6 1.6 0.6 1.6 0.6 1.5 0.6 1.6 0.7 1.6 0.6 1.6 0.5 1.5 0.6 1.6 0.6 1.6 0.6 1.6 0.6 1.6 0.6 1.6 0.6 1.6 0.6 1.6 0.5 1.6 0.6 1.6 0.6 1.6 0.6 1.6 0.5 1.6 0.6 1.6 1.1 3.2 1.2 3.2 1.1 3.2 1.1 3.2 1.1 3.2 2.2 6.4 1.2 3.2 1.1 3.2 1.1 3.1 1.1 3.2 0.6 1.6 0.5 1.6 0.6 1.5 0.6 1.6 0.5 1.6 0.6 1.6 0.6 1.5 0.5 1.6 1.6 4.3 1.6 4.3 1.6 4.4 1.6 4.3 3.2 8.7 3.2 8.6 3.2 8.7 3.2 8.7 3.2 8.6 1.6 4.4 1.5 4.3 1.6 4.4 1.6 4.3 1.6 4.4 1.6 4.3 1.6 4.3 1.5 4.4 1.6 4.3 1.6 4.4 1.6 4.4 1.5 4.3 1.6 4.4 1.5 4.3 1.6 4.4 0.7 2.2 0.8 2.2 0.8 2.2 0.7 2.1 0.8 2.2 0.8 2.2 0.1 0.5v0.6 0.5l-0.2 0.5-0.2 0.5-0.3 0.4-0.4 0.4-0.4 0.3-0.5 0.2-0.6 0.2h-0.5-0.5l-0.5-0.2-0.5-0.2-0.5-0.3-0.3-0.4-0.3-0.5-0.3-0.5-0.7-2.1-0.8-2.2-0.8-2.2-0.7-2.2-0.8-2.2-0.8-2.1-1.5-4.4-1.5-4.4-1.6-4.3-1.6-4.4-1.5-4.3-1.6-4.4-1.6-4.3-1.5-4.3-1.6-4.4-1.6-4.3-1.6-4.4-1.6-4.3-1.5-4.4-1.6-4.3-1.6-4.3-3.2-8.7-3.2-8.7-3.2-8.6-3.2-8.7-3.2-8.7-1.6-4.3-1.6-4.3-1.6-4.4-1.6-4.3-0.5-1.6-0.6-1.5-0.6-1.6-0.5-1.6-0.6-1.6-0.6-1.6-0.5-1.6-0.6-1.5-1.1-3.2-1.1-3.2-1.2-3.2-1.1-3.2-2.2-6.4-1.1-3.2-1.1-3.2-1.2-3.2-1.1-3.2-1.1-3.2-0.6-1.6-0.6-1.6-0.5-1.6-0.6-1.6-0.6-1.5-0.5-1.6-0.6-1.6-0.6-1.6-0.6-1.6-0.6-1.6-0.5-1.5-0.6-1.6-0.6-1.6-0.6-1.6-0.6-1.5-0.6-1.6-0.6-1.5-0.6-1.6-0.6-1.6-0.6-1.5-0.6-1.6-0.7-1.5-0.6-1.5-0.6-1.6-0.6-1.5-0.7-1.5-0.6-1.5-0.6-1.6-0.7-1.5-0.6-1.5-0.7-1.5-0.6-1.5-0.7-1.5-0.3-0.7-0.4-0.7-0.1-0.6-0.1-0.5v-0.5l0.1-0.5 0.2-0.6 0.3-0.4 0.3-0.4 0.4-0.4 0.5-0.2 0.5-0.2 0.5-0.1z"/><path class="i" d="m783.7 701h-121.9v67.4c0 21.5 27.8 51.2 27.8 51.2l64.1 1.3c0 0 30-30.1 30-52.5z"/><path class="j" d="m520.2 930.9q-1.3 1.4-2.2 2.9l-0.9-0.4c-0.2-0.6-0.7-1.1-1.4-1-0.6 0.1-1.1 0.7-1 1.4 0.1 0.6 0.7 1.1 1.3 1q0.2 0 0.4-0.1l0.9 0.5q-0.8 1.7-1.1 3.5l1.5 0.2c0.5-2.6 1.7-5 3.6-6.9z"/><path class="j" d="m531.2 926.3q-0.5 0-1 0.1l-0.2-1.3c0.4-0.3 0.6-0.8 0.5-1.3 0-0.8-0.8-1.3-1.5-1.2-0.8 0.1-1.4 0.8-1.3 1.6 0.1 0.5 0.4 0.9 0.8 1.1l0.2 1.2q-2.2 0.4-4.2 1.3l0.7 1.4q2.8-1.4 6-1.4 1.5 0 2.9 0.4l0.4-1.5q-1.7-0.4-3.3-0.4z"/><path class="j" d="m544.4 931.4c0.7-0.1 1.1-0.7 1-1.3 0-0.7-0.6-1.2-1.3-1.1-0.6 0.1-1.1 0.6-1.1 1.2l-0.8 0.8q-1.3-1.3-2.8-2.3l-0.8 1.3c2.2 1.4 4 3.4 5.1 5.8l1.4-0.6q-0.8-1.7-1.9-3.1l0.8-0.7q0.2 0 0.4 0z"/><path class="j" d="m530.1 946.7q-1.2 0.1-2.3 0.1c-1.8 0-3.5-0.1-5-0.3-0.8-0.2-1.7-0.4-2.5-0.6 2.1 3.7 6.1 6.2 10.8 6.2 5.7 0 10.5-3.8 11.9-9q-2.1 1.4-5 2.3c-2.3 0.7-5.1 1.2-7.9 1.3z"/><path fill-rule="evenodd" class="j" d="m543.2 939.8q0.1 0.5 0.1 1.1c-2.7 2.4-7.5 4-13.3 4.3-5.3 0.3-9.4-0.5-10.7-1.4q-0.3-1.3-0.3-2.6c0-6.5 5.5-11.8 12.2-11.8 6.1 0 11.3 4.4 12 10.4zm-12.6-1.1c0-2.1-1.7-3.7-3.7-3.7-2.1 0-3.7 1.6-3.7 3.7 0 2 1.6 3.7 3.7 3.7 2 0 3.7-1.7 3.7-3.7zm8.5-0.8c0-1.5-1.3-2.8-2.8-2.8-1.5 0-2.7 1.3-2.7 2.8 0 1.5 1.2 2.7 2.7 2.7 1.5 0 2.8-1.2 2.8-2.7z"/><path class="j" d="m563.2 933.1c-0.6-0.2-1.6-0.6-2.8-0.5-1.1 0.2-1.7 0.7-1.7 2v1.8h4.5v3.4h-4.5v10.9h-3.8v-10.9h-2.7v-3.4h2.7v-1.8c0-3.4 1.8-5.6 5.1-5.6 1.3 0 2.3 0.3 3.2 0.6z"/><path class="j" d="m572.6 939.8q-0.5-0.1-1.1-0.1c-1.7 0-3 1.1-3 3.2v7.8h-3.8v-14.3h3.7v1.5c0.9-1.3 2.3-1.9 4-1.9 0.9 0 1.7 0.2 2.2 0.7z"/><path fill-rule="evenodd" class="j" d="m587.9 943.5c0 0.5 0 1 0 1.3h-10.2c0.4 2.1 1.9 3 3.7 3 1.2 0 2.6-0.5 3.6-1.4l2.3 2.5c-1.7 1.5-3.7 2.2-6.1 2.2-4.4 0-7.5-3-7.5-7.5 0-4.5 3-7.6 7.3-7.6 4.1 0 6.9 3 6.9 7.5zm-10.2-1.3h6.4c-0.4-1.9-1.5-2.9-3.2-2.9-1.8 0-2.9 1.1-3.2 2.9z"/><path fill-rule="evenodd" class="j" d="m603.2 943.5c0 0.5 0 1 0 1.3h-10.2c0.4 2.1 1.9 3 3.7 3 1.2 0 2.6-0.5 3.6-1.4l2.3 2.5c-1.7 1.5-3.7 2.2-6.1 2.2-4.4 0-7.5-3-7.5-7.5 0-4.5 3-7.6 7.3-7.6 4.1 0 6.9 3 6.9 7.5zm-10.2-1.3h6.4c-0.4-1.9-1.5-2.9-3.2-2.9-1.8 0-2.9 1.1-3.2 2.9z"/><path fill-rule="evenodd" class="j" d="m619.9 943.5c0 4.3-3 7.6-6.9 7.6-1.9 0-3.3-0.8-4.2-1.9v7.4h-3.9v-20.2h3.8v1.5c0.9-1.1 2.3-1.9 4.3-1.9 3.9 0 6.9 3.2 6.9 7.5zm-11.3 0c0 2.3 1.5 4 3.7 4 2.2 0 3.7-1.8 3.7-4 0-2.2-1.5-3.9-3.7-3.9-2.2 0-3.7 1.7-3.7 3.9z"/><path class="j" d="m626.1 931.7c0 1.4-1 2.4-2.4 2.4-1.4 0-2.5-1-2.5-2.4 0-1.4 1.1-2.5 2.5-2.5 1.4 0 2.4 1.1 2.4 2.5zm-0.5 19h-3.8v-14.3h3.8z"/><path class="j" d="m632.1 941.5l5.4-5.1h4.7l-7 6.7 7 7.6h-4.7l-5.4-5.8v5.8h-3.9v-21.3h3.9z"/><path fill-rule="evenodd" class="j" d="m368.8 950.6v-2.1c-1 1.4-2.8 2.4-4.7 2.4-3.7 0-6.3-2.8-6.3-7.4 0-4.5 2.5-7.4 6.3-7.4 1.9 0 3.6 0.9 4.7 2.5v-7.6h2.2v19.6zm0-3.9v-6.4c-0.8-1.2-2.5-2.3-4.2-2.3-2.9 0-4.6 2.4-4.6 5.5 0 3.2 1.7 5.5 4.6 5.5 1.7 0 3.4-1 4.2-2.3z"/><path fill-rule="evenodd" class="j" d="m373.9 943.5c0-4.1 2.9-7.4 6.9-7.4 4.3 0 6.8 3.3 6.8 7.6v0.5h-11.4c0.2 2.7 2 4.9 5.1 4.9 1.6 0 3.2-0.6 4.3-1.8l1.1 1.5c-1.4 1.4-3.3 2.1-5.6 2.1-4.2 0-7.2-3-7.2-7.4zm6.9-5.6c-3 0-4.5 2.5-4.6 4.7h9.3c-0.1-2.1-1.5-4.7-4.7-4.7z"/><path class="j" d="m389.2 948.7l1.2-1.6c0.9 1.1 2.7 2 4.6 2 2.2 0 3.4-1 3.4-2.4 0-3.4-8.8-1.3-8.8-6.6 0-2.1 1.9-4 5.3-4 2.4 0 4.1 0.9 5.2 2l-1 1.6c-0.9-1.1-2.4-1.8-4.2-1.8-2 0-3.2 0.9-3.2 2.2 0 3.1 8.8 1 8.8 6.6 0 2.3-1.9 4.2-5.6 4.2-2.3 0-4.2-0.7-5.7-2.2z"/><path class="j" d="m403 932.9c0-0.8 0.6-1.5 1.4-1.5 0.8 0 1.5 0.7 1.5 1.5 0 0.9-0.7 1.5-1.5 1.5-0.8 0-1.4-0.6-1.4-1.5zm0.3 17.7v-14.2h2.2v14.2z"/><path fill-rule="evenodd" class="j" d="m409.2 954.2l1.1-1.6c1.1 1.4 2.6 1.9 4.6 1.9 2.3 0 4.5-1.1 4.5-4.2v-2.1c-1 1.5-2.7 2.6-4.7 2.6-3.7 0-6.3-2.8-6.3-7.4 0-4.5 2.6-7.3 6.3-7.3 1.9 0 3.6 0.9 4.7 2.5v-2.2h2.2v13.8c0 4.7-3.3 6.1-6.7 6.1-2.4 0-4.1-0.5-5.7-2.1zm10.2-7.7v-6.2c-0.7-1.2-2.4-2.3-4.2-2.3-2.8 0-4.5 2.3-4.5 5.4 0 3.1 1.7 5.4 4.5 5.4 1.8 0 3.5-1.1 4.2-2.3z"/><path class="j" d="m434.8 950.6v-9.3c0-2.5-1.2-3.3-3.1-3.3-1.8 0-3.4 1.1-4.2 2.2v10.4h-2.2v-14.2h2.2v2.1c1-1.2 2.9-2.4 5-2.4 3 0 4.5 1.5 4.5 4.5v10z"/><path fill-rule="evenodd" class="j" d="m439.9 943.5c0-4.1 2.9-7.4 6.9-7.4 4.3 0 6.8 3.3 6.8 7.6v0.5h-11.4c0.2 2.7 2 4.9 5.1 4.9 1.6 0 3.2-0.6 4.3-1.8l1.1 1.5c-1.4 1.4-3.3 2.1-5.6 2.1-4.2 0-7.2-3-7.2-7.4zm6.9-5.6c-3 0-4.5 2.5-4.6 4.7h9.3c-0.1-2.1-1.5-4.7-4.7-4.7z"/><path fill-rule="evenodd" class="j" d="m466.7 950.6v-2.1c-1.1 1.4-2.8 2.4-4.8 2.4-3.7 0-6.3-2.8-6.3-7.4 0-4.5 2.6-7.4 6.3-7.4 1.9 0 3.7 0.9 4.8 2.5v-7.6h2.2v19.6zm0-3.9v-6.4c-0.8-1.2-2.5-2.3-4.3-2.3-2.8 0-4.5 2.4-4.5 5.5 0 3.2 1.7 5.5 4.5 5.5 1.8 0 3.5-1 4.3-2.3z"/><path fill-rule="evenodd" class="j" d="m479.4 950.6v-19.6h2.2v7.6c1.1-1.6 2.8-2.5 4.8-2.5 3.6 0 6.3 2.9 6.3 7.4 0 4.6-2.7 7.4-6.3 7.4-2 0-3.8-1-4.8-2.4v2.1zm6.4-1.6c2.9 0 4.6-2.3 4.6-5.5 0-3.1-1.7-5.5-4.6-5.5-1.7 0-3.5 1.1-4.2 2.3v6.4c0.7 1.3 2.5 2.3 4.2 2.3z"/><path class="k" d="m495.1 954.1c0.3 0.2 0.8 0.3 1.2 0.3 0.9 0 1.6-0.4 2.1-1.5l0.9-2.2-5.9-14.3h2.4l4.7 11.6 4.7-11.6h2.4l-7.1 17c-0.9 2.1-2.3 2.9-4.2 2.9-0.5 0-1.2-0.1-1.6-0.2z"/></svg>