<svg version="1.2" xmlns="http://www.w3.org/2000/svg" viewBox="0 0 984 638" width="984" height="638"><defs><linearGradient id="P" gradientUnits="userSpaceOnUse"/><linearGradient id="g1" x2="1" href="#P" gradientTransform="matrix(65.223,0,0,38.355,880.118,482.656)"><stop stop-color="#e39a65"/><stop offset="1" stop-color="#e95f8d"/></linearGradient><linearGradient id="g2" x2="1" href="#P" gradientTransform="matrix(109.557,0,0,63.322,790.815,380.786)"><stop stop-color="#e39a65"/><stop offset="1" stop-color="#e95f8d"/></linearGradient><linearGradient id="g3" x2="1" href="#P" gradientTransform="matrix(109.557,0,0,63.322,68.37,417.491)"><stop stop-color="#e39a65"/><stop offset="1" stop-color="#e95f8d"/></linearGradient><linearGradient id="g4" x2="1" href="#P" gradientTransform="matrix(584.717,0,0,341.094,195.919,271.576)"><stop stop-color="#e39a65"/><stop offset="1" stop-color="#e95f8d"/></linearGradient><radialGradient id="g5" cx="0" cy="0" r="1" href="#P" gradientTransform="matrix(446.592,0,0,446.592,518.892,9.214)"><stop stop-color="#e39a65"/><stop offset=".47" stop-color="#a92ffb"/><stop offset=".74" stop-color="#6507fa"/><stop offset=".8" stop-color="#0d0c6f"/></radialGradient><radialGradient id="g6" cx="0" cy="0" r="1" href="#P" gradientTransform="matrix(488.344,0,0,488.344,245.746,367.86)"><stop stop-color="#e39a65"/><stop offset=".47" stop-color="#a92ffb"/><stop offset=".68" stop-color="#6507fa"/><stop offset=".74" stop-color="#0d0c6f"/></radialGradient><radialGradient id="g7" cx="0" cy="0" r="1" href="#P" gradientTransform="matrix(437.918,0,0,437.918,290.662,269.842)"><stop stop-color="#e39a65"/><stop offset=".47" stop-color="#a92ffb"/><stop offset=".73" stop-color="#6507fa"/><stop offset="1" stop-color="#3919bb"/></radialGradient><radialGradient id="g8" cx="0" cy="0" r="1" href="#P" gradientTransform="matrix(446.68,0,0,446.68,399.757,102.37)"><stop stop-color="#e39a65"/><stop offset=".47" stop-color="#a92ffb"/><stop offset=".73" stop-color="#6507fa"/><stop offset="1" stop-color="#3919bb"/></radialGradient><linearGradient id="g9" x2="1" href="#P" gradientTransform="matrix(357.931,0,0,383.515,448.852,27.867)"><stop stop-color="#3919bb"/><stop offset="1" stop-color="#6507fa"/></linearGradient><radialGradient id="g10" cx="0" cy="0" r="1" href="#P" gradientTransform="matrix(615.552,324.166,-324.166,615.552,236.694,6.984)"><stop stop-color="#e39a65"/><stop offset=".47" stop-color="#a92ffb"/><stop offset=".73" stop-color="#6507fa"/><stop offset="1" stop-color="#3919bb"/></radialGradient><linearGradient id="g11" x2="1" href="#P" gradientTransform="matrix(153.551,0,0,88.097,204.819,224.54)"><stop stop-color="#e39a65"/><stop offset="1" stop-color="#e95f8d"/></linearGradient><radialGradient id="g12" cx="0" cy="0" r="1" href="#P" gradientTransform="matrix(330.693,0,0,330.693,218.432,143.335)"><stop stop-color="#e39a65"/><stop offset=".15" stop-color="#a92ffb"/><stop offset=".41" stop-color="#3919bb"/><stop offset=".93" stop-color="#3919bb"/></radialGradient><linearGradient id="g13" x2="1" href="#P" gradientTransform="matrix(118.618,0,0,79.155,224.285,62.792)"><stop stop-color="#e39a65"/><stop offset=".25" stop-color="#a92ffb"/><stop offset=".56" stop-color="#3919bb"/></linearGradient><linearGradient id="g14" x2="1" href="#P" gradientTransform="matrix(96.35,0,0,55.628,235.417,68.528)"><stop stop-color="#4f1fec"/><stop offset="1" stop-color="#a92ffb"/></linearGradient><linearGradient id="g15" x2="1" href="#P" gradientTransform="matrix(96.35,0,0,55.628,233.131,68.528)"><stop stop-color="#4f1fec"/><stop offset="1" stop-color="#a92ffb"/></linearGradient><linearGradient id="g16" x2="1" href="#P" gradientTransform="matrix(121.504,0,0,38.12,235.416,68.528)"><stop stop-color="#131060"/><stop offset=".61" stop-color="#740df8"/><stop offset="1" stop-color="#e8975b"/></linearGradient><radialGradient id="g17" cx="0" cy="0" r="1" href="#P" gradientTransform="matrix(216.31,0,0,216.31,209.488,68.809)"><stop stop-color="#e39a65"/><stop offset=".25" stop-color="#a92ffb"/><stop offset=".74" stop-color="#3919bb"/></radialGradient><linearGradient id="g18" x2="1" href="#P" gradientTransform="matrix(16.809,0,0,2.384,275.965,121.936)"><stop stop-color="#131060"/><stop offset=".61" stop-color="#740df8"/><stop offset="1" stop-color="#e8975b"/></linearGradient></defs><style>.a{fill:#fff}.b{fill:url(#g1)}.c{fill:url(#g2)}.d{fill:url(#g3)}.e{opacity:.6;fill:#020230}.f{fill:url(#g4)}.g{fill:url(#g5)}.h{fill:url(#g6)}.i{fill:url(#g7)}.j{fill:#06033e}.k{fill:url(#g8)}.l{fill:url(#g9)}.m{opacity:.4;fill:#06033e}.n{opacity:.5;fill:#06033e}.o{fill:url(#g10)}.p{fill:#e8975b}.q{fill:#f8359e}.r{fill:url(#g11)}.s{fill:url(#g12)}.t{fill:url(#g13)}.u{fill:url(#g14)}.v{fill:url(#g15)}.w{fill:url(#g16)}.x{fill:url(#g17)}.y{fill:#0c0a78}.z{fill:url(#g18)}.A{opacity:.5;fill:#fff}</style><path fill-rule="evenodd" class="a" d="m445.2 707.5v-19.4h6.1q5.1 0 5.1 5.5 0 1.6-0.4 2.6-0.4 1.1-1.2 1.7-0.7 0.6-1.7 0.9-0.9 0.2-2.2 0.2h-1.7v8.5zm3.9-11.2h1.3q1.3 0 1.8-0.6 0.4-0.6 0.4-2.1 0-0.8-0.1-1.2 0-0.4-0.2-0.8-0.3-0.4-0.7-0.6-0.5-0.2-1.2-0.2h-1.3z"/><path fill-rule="evenodd" class="a" d="m458.3 707.5v-19.4h4.9q1.6 0 2.7 0.2 1.1 0.2 2 0.8 0.8 0.6 1.3 1.6 0.4 1 0.4 2.5 0 1.9-0.6 3.1-0.5 1.1-1.8 1.7l2.7 9.5h-4l-2.3-8.8h-1.3v8.8zm3.9-11.2h1q1.4 0 2-0.6 0.6-0.7 0.6-2.2 0-1.4-0.5-2.1-0.5-0.7-1.9-0.7h-1.2z"/><path fill-rule="evenodd" class="a" d="m477.6 707.8q-1.5 0-2.6-0.5-1.2-0.4-1.8-1.3-0.7-0.8-1-2-0.3-1.1-0.3-2.7v-7.1q0-1.6 0.3-2.7 0.3-1.2 1-2 0.6-0.8 1.8-1.3 1.1-0.4 2.6-0.4 3.1 0 4.5 1.6 1.3 1.6 1.3 4.8v7.1q0 3.2-1.3 4.8-1.4 1.7-4.5 1.7zm-0.7-3q0.3 0.1 0.7 0.1 0.5 0 0.8-0.1 0.3-0.2 0.5-0.4 0.2-0.2 0.3-0.6 0.1-0.4 0.1-0.7 0.1-0.3 0.1-0.8v-9.1q0-0.5-0.1-0.8 0-0.3-0.1-0.7-0.1-0.3-0.3-0.5-0.2-0.3-0.5-0.4-0.3-0.1-0.8-0.1-0.4 0-0.7 0.1-0.3 0.1-0.5 0.4-0.2 0.2-0.3 0.5-0.1 0.4-0.1 0.7 0 0.3 0 0.8v9.1q0 0.5 0 0.8 0 0.3 0.1 0.7 0.1 0.4 0.3 0.6 0.2 0.2 0.5 0.4z"/><path class="a" d="m491 707.8q-1.5 0-2.5-0.5-1-0.5-1.6-1.4-0.6-0.9-0.9-2.1-0.3-1.2-0.3-2.8v-6.4q0-1.3 0.2-2.3 0.1-1 0.6-1.9 0.4-0.8 1-1.4 0.7-0.6 1.6-0.9 1-0.3 2.3-0.3 1.5 0 2.6 0.4 1.1 0.4 1.7 1.1 0.7 0.8 1 1.8 0.3 1 0.3 2.4v1.1h-3.9v-1.3q0-0.5 0-0.9 0-0.3-0.1-0.7-0.1-0.4-0.3-0.6-0.2-0.2-0.5-0.3-0.3-0.1-0.7-0.1-0.5 0-0.8 0.1-0.4 0.2-0.5 0.4-0.2 0.3-0.3 0.7-0.1 0.4-0.1 0.8-0.1 0.3-0.1 0.9v8.4q0 1.4 0.4 2.2 0.4 0.7 1.5 0.7 1 0 1.4-0.8 0.5-0.8 0.5-2.3v-1.9h-1.9v-2.4h5.4v10h-2.6l-0.2-1.8q-0.9 2.1-3.2 2.1z"/><path fill-rule="evenodd" class="a" d="m499.7 707.5v-19.4h4.9q1.6 0 2.7 0.2 1.1 0.2 1.9 0.8 0.9 0.6 1.3 1.6 0.5 1 0.5 2.5 0 1.9-0.6 3.1-0.5 1.1-1.8 1.7l2.7 9.5h-4.1l-2.2-8.8h-1.3v8.8zm3.9-11.2h1q1.4 0 2-0.6 0.6-0.7 0.6-2.2 0-1.4-0.5-2.1-0.5-0.7-1.9-0.7h-1.2z"/><path fill-rule="evenodd" class="a" d="m512.6 707.5l3.8-19.4h4.4l3.7 19.4h-3.6l-0.7-4.3h-3.1l-0.7 4.3zm4.8-6.8h2.3l-1.2-7.7z"/><path class="a" d="m526.4 707.5l0.3-19.4h4.2l2.4 12.4 2.6-12.4h4.1l0.3 19.4h-2.9l-0.3-13.1-2.5 13.1h-2.4l-2.6-13.2-0.2 13.2z"/><path class="a" d="m543.1 707.5l0.3-19.4h4.1l2.5 12.4 2.6-12.4h4l0.3 19.4h-2.9l-0.2-13.1-2.5 13.1h-2.5l-2.6-13.2-0.2 13.2z"/><path class="a" d="m559.8 707.5v-19.4h4v19.4z"/><path class="a" d="m566.7 707.5v-19.4h2.8l4.3 10.1v-10.1h3.3v19.4h-2.7l-4.3-10.7v10.7z"/><path class="a" d="m584.9 707.8q-1.4 0-2.4-0.5-1.1-0.5-1.7-1.4-0.6-0.9-0.9-2.1-0.2-1.2-0.2-2.8v-6.4q0-1.3 0.1-2.3 0.2-1 0.6-1.9 0.4-0.8 1.1-1.4 0.6-0.6 1.6-0.9 1-0.3 2.3-0.3 1.5 0 2.6 0.4 1.1 0.4 1.7 1.1 0.6 0.8 0.9 1.8 0.3 1 0.3 2.4v1.1h-3.8v-1.3q0-0.5 0-0.9-0.1-0.3-0.2-0.7-0.1-0.4-0.2-0.6-0.2-0.2-0.5-0.3-0.3-0.1-0.8-0.1-0.5 0-0.8 0.1-0.3 0.2-0.5 0.4-0.2 0.3-0.3 0.7-0.1 0.4-0.1 0.8 0 0.3 0 0.9v8.4q0 1.4 0.4 2.2 0.4 0.7 1.4 0.7 1.1 0 1.5-0.8 0.4-0.8 0.4-2.3v-1.9h-1.9v-2.4h5.5v10h-2.6l-0.3-1.8q-0.8 2.1-3.2 2.1z"/><path fill-rule="evenodd" class="b" d="m912.7 521c-2.4 0-4.8-0.6-6.9-1.9l-23.5-13.5c-1.4-0.8-2.2-2.2-2.2-3.8 0-1.5 0.8-2.9 2.2-3.7l23.5-13.6c4.3-2.5 9.6-2.5 13.9 0l23.5 13.6c1.3 0.8 2.1 2.2 2.1 3.7 0 1.6-0.8 3-2.1 3.8l-23.5 13.5c-2.2 1.3-4.6 1.9-7 1.9zm0-34.6c-1.7 0-3.5 0.4-5.1 1.3l-23.4 13.6c-0.3 0.1-0.4 0.4-0.4 0.5 0 0.2 0.1 0.4 0.4 0.6l23.4 13.5q0 0 0 0c3.2 1.8 7.1 1.8 10.2 0l23.5-13.5c0.3-0.2 0.3-0.4 0.3-0.6 0-0.1 0-0.4-0.3-0.5l-23.5-13.6c-1.5-0.9-3.3-1.3-5.1-1.3z"/><path fill-rule="evenodd" class="c" d="m845.6 444.1c-3.9 0-7.8-1-11.3-3l-40.4-23.3c-1.9-1.1-3.1-3.1-3.1-5.4 0-2.2 1.2-4.2 3.1-5.3l40.4-23.3c7-4 15.6-4 22.6 0l40.4 23.3c1.9 1.1 3.1 3.1 3.1 5.3 0 2.3-1.2 4.3-3.1 5.4l-40.4 23.3c-3.5 2-7.4 3-11.3 3zm-9.5-6.2c5.9 3.3 13.1 3.3 18.9 0l40.4-23.4c1.1-0.6 1.2-1.6 1.2-2.1 0-0.4-0.1-1.4-1.2-2l-40.4-23.4c-5.8-3.3-13-3.3-18.9 0l-40.4 23.4c-1 0.6-1.2 1.6-1.2 2 0 0.5 0.2 1.5 1.2 2.1z"/><path fill-rule="evenodd" class="d" d="m123.1 480.8c-3.9 0-7.8-1-11.3-3l-40.4-23.3c-1.9-1.1-3-3.1-3-5.4 0-2.2 1.1-4.2 3-5.3l40.4-23.3c7-4 15.7-4 22.7 0l40.4 23.3c1.9 1.1 3 3.1 3 5.4 0 2.2-1.1 4.2-3 5.3l-40.4 23.3c-3.5 2-7.4 3-11.4 3zm0-59.6c-3.2 0-6.5 0.9-9.4 2.5l-40.4 23.4c-1.1 0.6-1.2 1.6-1.2 2.1 0 0.4 0.1 1.4 1.2 2l40.4 23.4c5.8 3.3 13.1 3.3 18.9 0l40.4-23.4c1.1-0.6 1.2-1.6 1.2-2 0-0.5-0.1-1.5-1.2-2.1l-40.4-23.4c-2.9-1.6-6.2-2.5-9.5-2.5z"/><path class="e" d="m532.2 582.6l-288.8-166.8c-4.2-2.4-3.7-6.7 1.2-9.5l185.4-107c4.8-2.8 12.2-3.1 16.4-0.7l288.8 166.8c4.2 2.4 3.7 6.6-1.1 9.4l-185.4 107.1c-4.9 2.8-12.2 3.1-16.5 0.7z"/><path fill-rule="evenodd" class="f" d="m538.9 612.7c-3.4 0-6.7-0.7-9.1-2.2l-329.7-190.3c-2.7-1.6-4.2-3.8-4.2-6.3 0-2.9 2-5.7 5.5-7.7l224.8-131.7c6.1-3.6 15.2-3.9 20.6-0.8l329.7 190.3c2.7 1.6 4.1 3.8 4.1 6.4 0 2.8-2 5.7-5.5 7.7l-224.7 131.7c-3.4 1.9-7.5 2.9-11.5 2.9zm-101.2-337.4c-3.3 0-6.9 0.8-9.7 2.4l-224.7 131.7c-2.3 1.3-3.7 3-3.7 4.5 0 1.4 1.3 2.5 2.4 3.1l329.6 190.3q0 0 0 0c4.2 2.5 12 2.1 16.9-0.8l224.7-131.6c2.3-1.4 3.7-3 3.7-4.5 0-1.5-1.2-2.5-2.3-3.1l-329.7-190.4c-1.9-1.1-4.4-1.6-7.2-1.6z"/><path class="g" d="m812 185.8l-287.7-166.2c-2-1.1-4.1-1.3-5.9-0.8q0 0 0 0l-5.4 1.9 1.9 0.4c-0.8 0.9-1.4 2-1.8 3.3l-65 211.3c-1.6 5.2 0.7 11.6 5.3 14.2l287.7 166.1q1 0.6 2.1 0.9l-0.7 1.5 5.1-1.8c2-0.8 3.8-2.7 4.6-5.4l65.1-211.2c1.6-5.3-0.8-11.6-5.3-14.2z"/><path class="h" d="m730.8 423.9l0.1 0.1-284.2-164.1c-4.2-2.4-11.5-2.1-16.3 0.7l-183.6 106-6.2-2.3 1.7 8.6h0.1c0.2 1.3 1.1 2.5 2.7 3.4l286.8 165.6c4.2 2.4 11.5 2.1 16.3-0.7l184.1-106.3c2.3-1.3 3.6-2.9 3.9-4.5l1.8-8.4z"/><path class="i" d="m532.2 534.3l-288.8-166.7c-4.2-2.5-3.7-6.7 1.2-9.5l185.4-107.1c4.8-2.8 12.2-3.1 16.4-0.6l288.8 166.7c4.2 2.5 3.7 6.7-1.1 9.5l-185.4 107.1c-4.9 2.8-12.2 3.1-16.5 0.6z"/><path class="a" d="m734.1 424.4l-185.4 107c-4.9 2.8-12.2 3.1-16.5 0.7l-288.8-166.8c-1.5-0.8-2.3-1.9-2.6-3-0.6 2 0.2 3.9 2.6 5.3l288.8 166.7c4.3 2.5 11.6 2.2 16.5-0.6l185.4-107.1c3.2-1.8 4.4-4.3 3.8-6.5-0.5 1.5-1.7 3-3.8 4.3z"/><g style="opacity:.4"><path class="j" d="m381.2 340.5l-9.8-5.6c-0.8-0.5-0.7-1.3 0.2-1.8l11.5-6.6c0.9-0.6 2.3-0.6 3.1-0.2l9.7 5.7c0.8 0.4 0.7 1.2-0.2 1.7l-11.5 6.7c-0.9 0.5-2.3 0.6-3 0.1z"/><path class="j" d="m396.2 349.2l-9.7-5.6c-0.8-0.5-0.7-1.3 0.2-1.8l11.5-6.6c0.9-0.6 2.3-0.6 3.1-0.2l9.7 5.7c0.8 0.4 0.7 1.2-0.2 1.7l-11.5 6.7c-0.9 0.5-2.3 0.5-3.1 0.1z"/><path class="j" d="m411.3 357.9l-9.8-5.6c-0.8-0.5-0.7-1.3 0.3-1.8l11.5-6.6c0.9-0.6 2.2-0.6 3-0.2l9.8 5.7c0.8 0.4 0.7 1.2-0.3 1.7l-11.5 6.7c-0.9 0.5-2.2 0.5-3 0.1z"/><path class="j" d="m432.1 350.7l-9.7-5.6c-0.8-0.5-0.7-1.3 0.2-1.8l9.6-5.6c0.9-0.5 2.3-0.5 3.1-0.1l9.8 5.6c0.7 0.5 0.6 1.3-0.3 1.8l-9.6 5.6c-0.9 0.5-2.3 0.6-3.1 0.1z"/><path class="j" d="m447.2 359.4l-9.8-5.6c-0.8-0.5-0.7-1.3 0.2-1.8l9.7-5.6c0.9-0.5 2.3-0.5 3.1-0.1l9.7 5.6c0.8 0.5 0.7 1.3-0.2 1.8l-9.7 5.6c-0.9 0.5-2.2 0.6-3 0.1z"/><path class="j" d="m462.2 368.1l-9.7-5.6c-0.8-0.5-0.7-1.3 0.2-1.8l9.7-5.6c0.9-0.5 2.2-0.5 3-0.1l9.8 5.6c0.8 0.5 0.7 1.3-0.2 1.8l-9.7 5.6c-0.9 0.5-2.3 0.6-3.1 0.1z"/><path class="j" d="m477.3 376.8l-9.8-5.6c-0.7-0.5-0.6-1.3 0.3-1.8l9.6-5.6c0.9-0.5 2.3-0.6 3.1-0.1l9.7 5.6c0.8 0.5 0.7 1.3-0.2 1.8l-9.7 5.6c-0.9 0.5-2.2 0.5-3 0.1z"/><path class="j" d="m492.4 385.5l-9.8-5.6c-0.8-0.5-0.7-1.3 0.2-1.8l9.7-5.6c0.9-0.5 2.3-0.6 3-0.1l9.8 5.6c0.8 0.5 0.7 1.3-0.2 1.8l-9.7 5.6c-0.9 0.5-2.3 0.5-3 0.1z"/><path class="j" d="m507.4 394.2l-9.7-5.6c-0.8-0.5-0.7-1.3 0.2-1.8l9.6-5.6c1-0.5 2.3-0.6 3.1-0.1l9.8 5.6c0.7 0.5 0.6 1.3-0.3 1.8l-9.6 5.6c-0.9 0.5-2.3 0.5-3.1 0.1z"/><path class="j" d="m522.5 402.9l-9.8-5.6c-0.8-0.5-0.7-1.3 0.2-1.8l9.7-5.6c0.9-0.5 2.3-0.6 3.1-0.1l9.7 5.6c0.8 0.5 0.7 1.3-0.2 1.8l-9.7 5.6c-0.9 0.5-2.2 0.5-3 0.1z"/><path class="j" d="m537.5 411.6l-9.7-5.7c-0.8-0.4-0.7-1.2 0.2-1.7l9.7-5.6c0.9-0.5 2.2-0.6 3-0.1l9.8 5.6c0.8 0.5 0.7 1.3-0.2 1.8l-9.7 5.6c-0.9 0.5-2.3 0.5-3.1 0.1z"/><path class="j" d="m552.6 420.3l-9.8-5.7c-0.7-0.4-0.6-1.2 0.3-1.7l9.6-5.6c0.9-0.5 2.3-0.6 3.1-0.1l9.7 5.6c0.8 0.5 0.7 1.2-0.2 1.8l-9.6 5.5c-1 0.6-2.3 0.6-3.1 0.2z"/><path class="j" d="m567.7 429l-9.8-5.7c-0.8-0.4-0.7-1.2 0.2-1.7l9.7-5.6c0.9-0.5 2.3-0.6 3-0.1l9.8 5.6c0.8 0.5 0.7 1.2-0.2 1.8l-9.7 5.5c-0.9 0.6-2.3 0.6-3 0.2z"/><path class="j" d="m454.3 346.6l-9.7-5.6c-0.8-0.5-0.7-1.3 0.2-1.8l9.6-5.6c0.9-0.5 2.3-0.6 3.1-0.1l9.7 5.6c0.8 0.5 0.7 1.3-0.2 1.8l-9.6 5.6c-0.9 0.5-2.3 0.5-3.1 0.1z"/><path class="j" d="m439 337.8l-9.7-5.7c-0.8-0.4-0.7-1.2 0.2-1.7l9.6-5.6c1-0.5 2.3-0.6 3.1-0.1l9.8 5.6c0.7 0.5 0.6 1.2-0.3 1.8l-9.6 5.5c-0.9 0.6-2.3 0.6-3.1 0.2z"/><path class="j" d="m423.7 328.9l-21-12.1c-0.8-0.4-0.7-1.2 0.2-1.8l9.7-5.5c0.9-0.6 2.3-0.6 3-0.2l21 12.2c0.8 0.4 0.7 1.2-0.2 1.7l-9.6 5.6c-0.9 0.5-2.3 0.6-3.1 0.1z"/><path class="j" d="m434.4 318.2l-17-9.9c-0.8-0.4-0.7-1.2 0.2-1.7l9.6-5.6c1-0.5 2.3-0.6 3.1-0.1l17 9.8c0.8 0.5 0.7 1.3-0.2 1.8l-9.6 5.6c-0.9 0.5-2.3 0.5-3.1 0.1z"/><path class="j" d="m469.4 355.3l-9.8-5.6c-0.8-0.5-0.7-1.3 0.2-1.8l9.7-5.6c0.9-0.5 2.3-0.6 3-0.1l9.8 5.6c0.8 0.5 0.7 1.3-0.2 1.8l-9.7 5.6c-0.9 0.5-2.3 0.5-3 0.1z"/><path class="j" d="m484.4 364l-9.7-5.6c-0.8-0.5-0.7-1.3 0.2-1.8l9.7-5.6c0.9-0.5 2.2-0.6 3-0.1l9.8 5.6c0.7 0.5 0.6 1.3-0.3 1.8l-9.6 5.6c-0.9 0.5-2.3 0.5-3.1 0.1z"/><path class="j" d="m499.5 372.7l-9.8-5.6c-0.7-0.5-0.7-1.3 0.3-1.8l9.6-5.6c0.9-0.5 2.3-0.6 3.1-0.1l9.7 5.6c0.8 0.5 0.7 1.3-0.2 1.8l-9.7 5.6c-0.9 0.5-2.2 0.5-3 0.1z"/><path class="j" d="m514.5 381.4l-9.7-5.7c-0.8-0.4-0.7-1.2 0.2-1.7l9.7-5.6c0.9-0.5 2.2-0.6 3-0.1l9.8 5.6c0.8 0.5 0.7 1.2-0.2 1.8l-9.7 5.5c-0.9 0.6-2.3 0.6-3.1 0.2z"/><path class="j" d="m529.6 390.1l-9.7-5.7c-0.8-0.4-0.7-1.2 0.2-1.7l9.6-5.6c0.9-0.5 2.3-0.6 3.1-0.1l9.7 5.6c0.8 0.5 0.7 1.2-0.2 1.8l-9.6 5.5c-0.9 0.6-2.3 0.6-3.1 0.2z"/><path class="j" d="m544.7 398.8l-9.8-5.7c-0.8-0.4-0.7-1.2 0.2-1.7l9.7-5.6c0.9-0.5 2.3-0.6 3.1-0.1l9.7 5.6c0.8 0.4 0.7 1.2-0.2 1.8l-9.7 5.5c-0.9 0.6-2.2 0.6-3 0.2z"/><path class="j" d="m559.7 407.5l-9.7-5.7c-0.8-0.4-0.7-1.2 0.2-1.7l9.7-5.6c0.9-0.5 2.2-0.6 3-0.1l9.8 5.6c0.7 0.4 0.6 1.2-0.3 1.8l-9.6 5.5c-0.9 0.6-2.3 0.6-3.1 0.2z"/><path class="j" d="m574.8 416.2l-9.8-5.7c-0.7-0.4-0.6-1.2 0.3-1.7l9.6-5.6c0.9-0.5 2.3-0.6 3.1-0.1l9.7 5.6c0.8 0.4 0.7 1.2-0.2 1.8l-9.7 5.5c-0.9 0.6-2.2 0.6-3 0.2z"/><path class="j" d="m589.8 424.9l-9.7-5.7c-0.8-0.4-0.7-1.2 0.2-1.7l9.7-5.6c0.9-0.5 2.3-0.6 3-0.1l9.8 5.6c0.8 0.4 0.7 1.2-0.2 1.7l-9.7 5.6c-0.9 0.5-2.3 0.6-3.1 0.2z"/><path class="j" d="m616.6 440.3l-21.3-12.3c-0.7-0.4-0.6-1.2 0.3-1.7l9.6-5.6c0.9-0.5 2.3-0.6 3.1-0.1l21.3 12.2c0.7 0.5 0.6 1.3-0.3 1.8l-9.6 5.6c-0.9 0.5-2.3 0.6-3.1 0.1z"/><path class="j" d="m645.9 423.4l-17.9-10.4c-0.8-0.4-0.7-1.2 0.2-1.8l9.7-5.5c0.9-0.6 2.2-0.6 3-0.2l18 10.4c0.8 0.5 0.7 1.3-0.2 1.8l-9.7 5.6c-0.9 0.5-2.3 0.5-3.1 0.1z"/><path class="j" d="m495.7 353.6l-9.7-5.6c-0.8-0.5-0.7-1.3 0.2-1.8l9.7-5.6c0.9-0.5 2.2-0.6 3-0.1l9.8 5.6c0.8 0.5 0.7 1.3-0.2 1.8l-9.7 5.6c-0.9 0.5-2.3 0.5-3.1 0.1z"/><path class="j" d="m480.3 344.7l-9.7-5.7c-0.8-0.4-0.7-1.2 0.2-1.7l9.6-5.6c0.9-0.5 2.3-0.6 3.1-0.1l9.7 5.6c0.8 0.5 0.7 1.3-0.2 1.8l-9.6 5.6c-0.9 0.5-2.3 0.5-3.1 0.1z"/><path class="j" d="m464.9 335.8l-9.8-5.7c-0.8-0.4-0.7-1.2 0.2-1.7l9.7-5.6c0.9-0.5 2.3-0.6 3.1-0.1l9.7 5.6c0.8 0.4 0.7 1.2-0.2 1.8l-9.7 5.5c-0.9 0.6-2.2 0.6-3 0.2z"/><path class="j" d="m449.4 326.9l-9.7-5.7c-0.8-0.4-0.7-1.2 0.2-1.7l9.7-5.6c0.9-0.5 2.2-0.6 3-0.1l9.8 5.6c0.8 0.4 0.7 1.2-0.2 1.7l-9.7 5.6c-0.9 0.6-2.3 0.6-3.1 0.2z"/><path class="j" d="m510.8 362.3l-9.8-5.6c-0.7-0.5-0.6-1.3 0.3-1.8l9.6-5.6c0.9-0.5 2.3-0.6 3.1-0.1l9.7 5.6c0.8 0.5 0.7 1.3-0.2 1.8l-9.6 5.6c-0.9 0.5-2.3 0.5-3.1 0.1z"/><path class="j" d="m525.9 371l-9.8-5.7c-0.8-0.4-0.7-1.2 0.2-1.7l9.7-5.6c0.9-0.5 2.3-0.6 3-0.1l9.8 5.6c0.8 0.5 0.7 1.3-0.2 1.8l-9.7 5.6c-0.9 0.5-2.3 0.5-3 0.1z"/><path class="j" d="m540.9 379.7l-9.7-5.7c-0.8-0.4-0.7-1.2 0.2-1.7l9.7-5.6c0.9-0.5 2.2-0.6 3-0.1l9.8 5.6c0.7 0.5 0.6 1.2-0.3 1.8l-9.6 5.5c-0.9 0.6-2.3 0.6-3.1 0.2z"/><path class="j" d="m556 388.4l-9.8-5.7c-0.8-0.4-0.7-1.2 0.2-1.7l9.7-5.6c0.9-0.5 2.3-0.6 3.1-0.1l9.7 5.6c0.8 0.5 0.7 1.2-0.2 1.8l-9.7 5.5c-0.9 0.6-2.2 0.6-3 0.2z"/><path class="j" d="m571 397.1l-9.7-5.7c-0.8-0.4-0.7-1.2 0.2-1.7l9.7-5.6c0.9-0.5 2.2-0.6 3-0.1l9.8 5.6c0.8 0.4 0.7 1.2-0.2 1.8l-9.7 5.5c-0.9 0.6-2.3 0.6-3.1 0.2z"/><path class="j" d="m586.1 405.8l-9.8-5.7c-0.7-0.4-0.6-1.2 0.3-1.7l9.6-5.6c0.9-0.5 2.3-0.6 3.1-0.1l9.7 5.6c0.8 0.4 0.7 1.2-0.2 1.8l-9.6 5.5c-0.9 0.6-2.3 0.6-3.1 0.2z"/><path class="j" d="m601.2 414.5l-9.8-5.7c-0.8-0.4-0.7-1.2 0.2-1.7l9.7-5.6c0.9-0.5 2.3-0.6 3-0.1l9.8 5.6c0.8 0.4 0.7 1.2-0.2 1.8l-9.7 5.5c-0.9 0.6-2.3 0.6-3 0.2z"/><path class="j" d="m616.2 423.2l-9.7-5.7c-0.8-0.4-0.7-1.2 0.2-1.7l9.7-5.6c0.9-0.5 2.2-0.6 3-0.1l9.8 5.6c0.7 0.4 0.6 1.2-0.3 1.7l-9.6 5.6c-0.9 0.5-2.3 0.6-3.1 0.2z"/><path class="j" d="m631.3 431.8l-9.8-5.6c-0.8-0.4-0.7-1.2 0.3-1.7l9.6-5.6c0.9-0.5 2.3-0.6 3.1-0.2l9.7 5.7c0.8 0.4 0.7 1.2-0.2 1.7l-9.7 5.6c-0.9 0.5-2.2 0.6-3 0.1z"/><path class="j" d="m487.8 332.1l-9.7-5.6c-0.8-0.5-0.7-1.3 0.2-1.8l9.6-5.6c0.9-0.5 2.3-0.6 3.1-0.1l9.7 5.6c0.8 0.5 0.7 1.3-0.2 1.8l-9.6 5.6c-0.9 0.5-2.3 0.5-3.1 0.1z"/><path class="j" d="m472.8 323.4l-9.7-5.6c-0.8-0.5-0.7-1.2 0.2-1.8l9.7-5.5c0.9-0.6 2.2-0.6 3-0.2l9.8 5.7c0.7 0.4 0.6 1.2-0.3 1.7l-9.6 5.6c-0.9 0.5-2.3 0.6-3.1 0.1z"/><path class="j" d="m457.8 314.8l-9.7-5.7c-0.8-0.4-0.7-1.2 0.2-1.7l9.7-5.6c0.9-0.5 2.2-0.6 3-0.1l9.8 5.6c0.8 0.5 0.7 1.3-0.2 1.8l-9.7 5.6c-0.9 0.5-2.3 0.5-3.1 0.1z"/><path class="j" d="m442.9 306.1l-9.8-5.6c-0.8-0.5-0.7-1.2 0.2-1.8l9.7-5.5c0.9-0.6 2.3-0.6 3-0.2l9.8 5.7c0.8 0.4 0.7 1.2-0.2 1.7l-9.7 5.6c-0.9 0.5-2.3 0.6-3 0.1z"/><path class="j" d="m458.3 297.2l-9.8-5.6c-0.8-0.5-0.7-1.2 0.2-1.8l3.2-1.8c0.9-0.5 2.3-0.6 3.1-0.1l9.7 5.6c0.8 0.4 0.7 1.2-0.2 1.8l-3.2 1.8c-0.9 0.5-2.3 0.6-3 0.1z"/><path class="j" d="m477.8 308.5l-9.7-5.6c-0.8-0.5-0.7-1.3 0.2-1.8l3.2-1.8c0.9-0.5 2.3-0.6 3-0.1l9.8 5.6c0.8 0.4 0.7 1.2-0.2 1.7l-3.2 1.9c-0.9 0.5-2.3 0.6-3.1 0.1z"/><path class="j" d="m492.7 317.1l-9.7-5.6c-0.8-0.4-0.7-1.2 0.2-1.8l3.2-1.8c0.9-0.5 2.3-0.6 3.1-0.1l9.7 5.6c0.8 0.5 0.7 1.2-0.2 1.8l-3.2 1.8c-0.9 0.5-2.3 0.6-3.1 0.1z"/><path class="j" d="m507.7 325.8l-9.8-5.7c-0.8-0.4-0.7-1.2 0.2-1.7l3.2-1.9c0.9-0.5 2.3-0.6 3.1-0.1l9.7 5.6c0.8 0.5 0.7 1.3-0.2 1.8l-3.2 1.8c-0.9 0.5-2.3 0.6-3 0.2z"/><path class="j" d="m522.6 334.4l-9.8-5.7c-0.7-0.4-0.7-1.2 0.3-1.7l3.1-1.9c1-0.5 2.3-0.5 3.1-0.1l9.8 5.6c0.7 0.5 0.6 1.3-0.3 1.8l-3.2 1.8c-0.9 0.6-2.2 0.6-3 0.2z"/><path class="j" d="m605.9 382.5l-9.8-5.7c-0.7-0.4-0.6-1.2 0.3-1.7l3.2-1.9c0.9-0.5 2.2-0.5 3-0.1l9.8 5.6c0.8 0.5 0.7 1.3-0.3 1.8l-3.1 1.8c-0.9 0.6-2.3 0.6-3.1 0.2z"/><path class="j" d="m620.8 391.1l-9.7-5.6c-0.8-0.5-0.7-1.3 0.2-1.8l3.2-1.9c0.9-0.5 2.3-0.5 3-0.1l9.8 5.7c0.8 0.4 0.7 1.2-0.2 1.7l-3.2 1.9c-0.9 0.5-2.3 0.5-3.1 0.1z"/><path class="j" d="m635.7 399.7l-9.7-5.6c-0.8-0.5-0.7-1.3 0.2-1.8l3.2-1.8c0.9-0.6 2.3-0.6 3.1-0.2l9.7 5.7c0.8 0.4 0.7 1.2-0.2 1.7l-3.2 1.9c-0.9 0.5-2.3 0.6-3.1 0.1z"/><path class="j" d="m650.7 408.3l-9.8-5.6c-0.8-0.5-0.7-1.3 0.2-1.8l3.2-1.8c0.9-0.5 2.3-0.6 3.1-0.1l9.7 5.6c0.8 0.4 0.7 1.2-0.2 1.7l-3.2 1.9c-0.9 0.5-2.2 0.6-3 0.1z"/><path class="j" d="m502.9 340.8l-9.8-5.7c-0.8-0.4-0.7-1.2 0.2-1.7l9.7-5.6c0.9-0.5 2.3-0.6 3.1-0.1l9.7 5.6c0.8 0.5 0.7 1.2-0.2 1.8l-9.7 5.6c-0.9 0.5-2.2 0.5-3 0.1z"/><path class="j" d="m517.9 349.5l-9.7-5.7c-0.8-0.4-0.7-1.2 0.2-1.7l9.7-5.6c0.9-0.5 2.2-0.6 3-0.1l9.8 5.6c0.7 0.5 0.7 1.2-0.3 1.8l-9.6 5.5c-0.9 0.6-2.3 0.6-3.1 0.2z"/><path class="j" d="m533 358.2l-9.8-5.7c-0.7-0.4-0.6-1.2 0.3-1.7l9.6-5.6c0.9-0.5 2.3-0.6 3.1-0.1l9.7 5.6c0.8 0.5 0.7 1.2-0.2 1.8l-9.7 5.5c-0.9 0.6-2.2 0.6-3 0.2z"/><path class="j" d="m548.1 366.9l-9.8-5.7c-0.8-0.4-0.7-1.2 0.2-1.7l9.7-5.6c0.9-0.5 2.3-0.6 3-0.1l9.8 5.6c0.8 0.4 0.7 1.2-0.2 1.8l-9.7 5.5c-0.9 0.6-2.3 0.6-3 0.2z"/><path class="j" d="m563.1 375.6l-9.7-5.7c-0.8-0.4-0.7-1.2 0.2-1.7l9.6-5.6c0.9-0.5 2.3-0.6 3.1-0.1l9.7 5.6c0.8 0.4 0.7 1.2-0.2 1.8l-9.6 5.5c-0.9 0.6-2.3 0.6-3.1 0.2z"/><path class="j" d="m578.2 384.3l-9.8-5.7c-0.8-0.4-0.7-1.2 0.2-1.7l9.7-5.6c0.9-0.5 2.3-0.6 3.1-0.1l9.7 5.6c0.8 0.4 0.7 1.2-0.2 1.7l-9.7 5.6c-0.9 0.5-2.2 0.6-3 0.2z"/><path class="j" d="m593.2 392.9l-9.7-5.6c-0.8-0.4-0.7-1.2 0.2-1.7l9.7-5.6c0.9-0.5 2.2-0.6 3-0.2l9.8 5.7c0.8 0.4 0.7 1.2-0.3 1.7l-9.6 5.6c-0.9 0.5-2.3 0.6-3.1 0.1z"/><path class="j" d="m608.3 401.6l-9.8-5.6c-0.7-0.4-0.6-1.2 0.3-1.8l9.6-5.5c0.9-0.6 2.3-0.6 3.1-0.2l9.7 5.7c0.8 0.4 0.7 1.2-0.2 1.7l-9.7 5.6c-0.9 0.5-2.2 0.6-3 0.1z"/><path class="j" d="m623.4 410.3l-9.8-5.6c-0.8-0.4-0.7-1.2 0.2-1.8l9.7-5.5c0.9-0.6 2.3-0.6 3-0.2l9.8 5.7c0.8 0.4 0.7 1.2-0.2 1.7l-9.7 5.6c-0.9 0.5-2.3 0.6-3 0.1z"/><path class="j" d="m416.8 341.9l-28.8-16.6c-0.7-0.5-0.6-1.3 0.3-1.8l9.6-5.6c0.9-0.5 2.3-0.6 3.1-0.1l28.7 16.6c0.8 0.4 0.7 1.2-0.2 1.7l-9.7 5.6c-0.9 0.5-2.3 0.6-3 0.2z"/><path class="j" d="m601.8 448.7l-28.7-16.6c-0.8-0.5-0.7-1.3 0.2-1.8l9.6-5.6c1-0.5 2.3-0.5 3.1-0.1l28.7 16.6c0.8 0.5 0.7 1.2-0.2 1.8l-9.7 5.5c-0.9 0.6-2.2 0.6-3 0.2z"/><path class="j" d="m541.6 433.1l-9.8-5.6c-0.8-0.5-0.7-1.3 0.2-1.8l11.5-6.6c0.9-0.6 2.3-0.6 3.1-0.2l9.7 5.7c0.8 0.4 0.7 1.2-0.2 1.7l-11.5 6.7c-0.9 0.5-2.3 0.6-3 0.1z"/><path class="j" d="m432.2 370l-15.6-9c-0.8-0.5-0.7-1.3 0.2-1.8l11.5-6.7c0.9-0.5 2.3-0.5 3.1-0.1l15.6 9c0.8 0.5 0.7 1.3-0.2 1.8l-11.6 6.6c-0.9 0.6-2.2 0.6-3 0.2z"/><path class="j" d="m527 424.7l-15.5-9c-0.8-0.4-0.7-1.2 0.2-1.7l11.5-6.7c0.9-0.5 2.3-0.6 3-0.1l15.6 9c0.8 0.4 0.7 1.2-0.2 1.8l-11.5 6.6c-0.9 0.5-2.3 0.6-3.1 0.1z"/><path class="j" d="m453.9 382.5l-15.6-9c-0.8-0.4-0.7-1.2 0.2-1.8l11.6-6.6c0.9-0.5 2.2-0.6 3-0.1l15.6 9c0.8 0.4 0.7 1.2-0.2 1.7l-11.5 6.7c-0.9 0.5-2.3 0.6-3.1 0.1z"/><path class="j" d="m453.2 365l67.8 39.2c0.9 0.5 0.9 1.3 0 1.7l-11.7 6.8c-0.9 0.5-2.2 0.5-3.1 0l-67.8-39.1z"/><path class="j" d="m583.7 448.9l10.8 6.2c0.7 0.4 0.6 1.1-0.2 1.5l-4.7 2.7c-0.7 0.4-1.8 0.5-2.5 0.1l-10.8-6.3c-0.7-0.3-0.6-1 0.1-1.4l4.7-2.7c0.8-0.5 1.9-0.5 2.6-0.1z"/><path class="j" d="m568.5 440.1l10.8 6.3c0.7 0.3 0.6 1-0.2 1.4l-4.7 2.7c-0.7 0.5-1.8 0.5-2.5 0.1l-10.8-6.2c-0.7-0.4-0.6-1 0.2-1.5l4.7-2.7c0.7-0.4 1.8-0.5 2.5-0.1z"/><path class="j" d="m553.4 431.4l10.9 6.3c0.6 0.4 0.5 1-0.2 1.4l-4.7 2.7c-0.8 0.5-1.9 0.5-2.5 0.1l-10.9-6.2c-0.6-0.4-0.5-1 0.2-1.5l4.7-2.7c0.7-0.4 1.9-0.5 2.5-0.1z"/><path class="j" d="m576.8 435.3l10.8 6.3c0.7 0.3 0.6 1-0.1 1.4l-4.7 2.7c-0.8 0.5-1.9 0.5-2.5 0.1l-10.9-6.2c-0.7-0.4-0.6-1 0.2-1.5l4.7-2.7c0.7-0.4 1.8-0.5 2.5-0.1z"/></g><g style="opacity:.4"><path class="j" d="m381.2 340.5l-9.8-5.6c-0.8-0.5-0.7-1.3 0.2-1.8l11.5-6.6c0.9-0.6 2.3-0.6 3.1-0.2l9.7 5.7c0.8 0.4 0.7 1.2-0.2 1.7l-11.5 6.7c-0.9 0.5-2.3 0.6-3 0.1z"/><path class="j" d="m396.2 349.2l-9.7-5.6c-0.8-0.5-0.7-1.3 0.2-1.8l11.5-6.6c0.9-0.6 2.3-0.6 3.1-0.2l9.7 5.7c0.8 0.4 0.7 1.2-0.2 1.7l-11.5 6.7c-0.9 0.5-2.3 0.5-3.1 0.1z"/><path class="j" d="m411.3 357.9l-9.8-5.6c-0.8-0.5-0.7-1.3 0.3-1.8l11.5-6.6c0.9-0.6 2.2-0.6 3-0.2l9.8 5.7c0.8 0.4 0.7 1.2-0.3 1.7l-11.5 6.7c-0.9 0.5-2.2 0.5-3 0.1z"/><path class="j" d="m432.1 350.7l-9.7-5.6c-0.8-0.5-0.7-1.3 0.2-1.8l9.6-5.6c0.9-0.5 2.3-0.5 3.1-0.1l9.8 5.6c0.7 0.5 0.6 1.3-0.3 1.8l-9.6 5.6c-0.9 0.5-2.3 0.6-3.1 0.1z"/><path class="j" d="m447.2 359.4l-9.8-5.6c-0.8-0.5-0.7-1.3 0.2-1.8l9.7-5.6c0.9-0.5 2.3-0.5 3.1-0.1l9.7 5.6c0.8 0.5 0.7 1.3-0.2 1.8l-9.7 5.6c-0.9 0.5-2.2 0.6-3 0.1z"/><path class="j" d="m462.2 368.1l-9.7-5.6c-0.8-0.5-0.7-1.3 0.2-1.8l9.7-5.6c0.9-0.5 2.2-0.5 3-0.1l9.8 5.6c0.8 0.5 0.7 1.3-0.2 1.8l-9.7 5.6c-0.9 0.5-2.3 0.6-3.1 0.1z"/><path class="j" d="m477.3 376.8l-9.8-5.6c-0.7-0.5-0.6-1.3 0.3-1.8l9.6-5.6c0.9-0.5 2.3-0.6 3.1-0.1l9.7 5.6c0.8 0.5 0.7 1.3-0.2 1.8l-9.7 5.6c-0.9 0.5-2.2 0.5-3 0.1z"/><path class="j" d="m492.4 385.5l-9.8-5.6c-0.8-0.5-0.7-1.3 0.2-1.8l9.7-5.6c0.9-0.5 2.3-0.6 3-0.1l9.8 5.6c0.8 0.5 0.7 1.3-0.2 1.8l-9.7 5.6c-0.9 0.5-2.3 0.5-3 0.1z"/><path class="j" d="m507.4 394.2l-9.7-5.6c-0.8-0.5-0.7-1.3 0.2-1.8l9.6-5.6c1-0.5 2.3-0.6 3.1-0.1l9.8 5.6c0.7 0.5 0.6 1.3-0.3 1.8l-9.6 5.6c-0.9 0.5-2.3 0.5-3.1 0.1z"/><path class="j" d="m522.5 402.9l-9.8-5.6c-0.8-0.5-0.7-1.3 0.2-1.8l9.7-5.6c0.9-0.5 2.3-0.6 3.1-0.1l9.7 5.6c0.8 0.5 0.7 1.3-0.2 1.8l-9.7 5.6c-0.9 0.5-2.2 0.5-3 0.1z"/><path class="j" d="m537.5 411.6l-9.7-5.7c-0.8-0.4-0.7-1.2 0.2-1.7l9.7-5.6c0.9-0.5 2.2-0.6 3-0.1l9.8 5.6c0.8 0.5 0.7 1.3-0.2 1.8l-9.7 5.6c-0.9 0.5-2.3 0.5-3.1 0.1z"/><path class="j" d="m552.6 420.3l-9.8-5.7c-0.7-0.4-0.6-1.2 0.3-1.7l9.6-5.6c0.9-0.5 2.3-0.6 3.1-0.1l9.7 5.6c0.8 0.5 0.7 1.2-0.2 1.8l-9.6 5.5c-1 0.6-2.3 0.6-3.1 0.2z"/><path class="j" d="m567.7 429l-9.8-5.7c-0.8-0.4-0.7-1.2 0.2-1.7l9.7-5.6c0.9-0.5 2.3-0.6 3-0.1l9.8 5.6c0.8 0.5 0.7 1.2-0.2 1.8l-9.7 5.5c-0.9 0.6-2.3 0.6-3 0.2z"/><path class="j" d="m454.3 346.6l-9.7-5.6c-0.8-0.5-0.7-1.3 0.2-1.8l9.6-5.6c0.9-0.5 2.3-0.6 3.1-0.1l9.7 5.6c0.8 0.5 0.7 1.3-0.2 1.8l-9.6 5.6c-0.9 0.5-2.3 0.5-3.1 0.1z"/><path class="j" d="m439 337.8l-9.7-5.7c-0.8-0.4-0.7-1.2 0.2-1.7l9.6-5.6c1-0.5 2.3-0.6 3.1-0.1l9.8 5.6c0.7 0.5 0.6 1.2-0.3 1.8l-9.6 5.5c-0.9 0.6-2.3 0.6-3.1 0.2z"/><path class="j" d="m423.7 328.9l-21-12.1c-0.8-0.4-0.7-1.2 0.2-1.8l9.7-5.5c0.9-0.6 2.3-0.6 3-0.2l21 12.2c0.8 0.4 0.7 1.2-0.2 1.7l-9.6 5.6c-0.9 0.5-2.3 0.6-3.1 0.1z"/><path class="j" d="m434.4 318.2l-17-9.9c-0.8-0.4-0.7-1.2 0.2-1.7l9.6-5.6c1-0.5 2.3-0.6 3.1-0.1l17 9.8c0.8 0.5 0.7 1.3-0.2 1.8l-9.6 5.6c-0.9 0.5-2.3 0.5-3.1 0.1z"/><path class="j" d="m469.4 355.3l-9.8-5.6c-0.8-0.5-0.7-1.3 0.2-1.8l9.7-5.6c0.9-0.5 2.3-0.6 3-0.1l9.8 5.6c0.8 0.5 0.7 1.3-0.2 1.8l-9.7 5.6c-0.9 0.5-2.3 0.5-3 0.1z"/><path class="j" d="m484.4 364l-9.7-5.6c-0.8-0.5-0.7-1.3 0.2-1.8l9.7-5.6c0.9-0.5 2.2-0.6 3-0.1l9.8 5.6c0.7 0.5 0.6 1.3-0.3 1.8l-9.6 5.6c-0.9 0.5-2.3 0.5-3.1 0.1z"/><path class="j" d="m499.5 372.7l-9.8-5.6c-0.7-0.5-0.7-1.3 0.3-1.8l9.6-5.6c0.9-0.5 2.3-0.6 3.1-0.1l9.7 5.6c0.8 0.5 0.7 1.3-0.2 1.8l-9.7 5.6c-0.9 0.5-2.2 0.5-3 0.1z"/><path class="j" d="m514.5 381.4l-9.7-5.7c-0.8-0.4-0.7-1.2 0.2-1.7l9.7-5.6c0.9-0.5 2.2-0.6 3-0.1l9.8 5.6c0.8 0.5 0.7 1.2-0.2 1.8l-9.7 5.5c-0.9 0.6-2.3 0.6-3.1 0.2z"/><path class="j" d="m529.6 390.1l-9.7-5.7c-0.8-0.4-0.7-1.2 0.2-1.7l9.6-5.6c0.9-0.5 2.3-0.6 3.1-0.1l9.7 5.6c0.8 0.5 0.7 1.2-0.2 1.8l-9.6 5.5c-0.9 0.6-2.3 0.6-3.1 0.2z"/><path class="j" d="m544.7 398.8l-9.8-5.7c-0.8-0.4-0.7-1.2 0.2-1.7l9.7-5.6c0.9-0.5 2.3-0.6 3.1-0.1l9.7 5.6c0.8 0.4 0.7 1.2-0.2 1.8l-9.7 5.5c-0.9 0.6-2.2 0.6-3 0.2z"/><path class="j" d="m559.7 407.5l-9.7-5.7c-0.8-0.4-0.7-1.2 0.2-1.7l9.7-5.6c0.9-0.5 2.2-0.6 3-0.1l9.8 5.6c0.7 0.4 0.6 1.2-0.3 1.8l-9.6 5.5c-0.9 0.6-2.3 0.6-3.1 0.2z"/><path class="j" d="m574.8 416.2l-9.8-5.7c-0.7-0.4-0.6-1.2 0.3-1.7l9.6-5.6c0.9-0.5 2.3-0.6 3.1-0.1l9.7 5.6c0.8 0.4 0.7 1.2-0.2 1.8l-9.7 5.5c-0.9 0.6-2.2 0.6-3 0.2z"/><path class="j" d="m589.8 424.9l-9.7-5.7c-0.8-0.4-0.7-1.2 0.2-1.7l9.7-5.6c0.9-0.5 2.3-0.6 3-0.1l9.8 5.6c0.8 0.4 0.7 1.2-0.2 1.7l-9.7 5.6c-0.9 0.5-2.3 0.6-3.1 0.2z"/><path class="j" d="m616.6 440.3l-21.3-12.3c-0.7-0.4-0.6-1.2 0.3-1.7l9.6-5.6c0.9-0.5 2.3-0.6 3.1-0.1l21.3 12.2c0.7 0.5 0.6 1.3-0.3 1.8l-9.6 5.6c-0.9 0.5-2.3 0.6-3.1 0.1z"/><path class="j" d="m645.9 423.4l-17.9-10.4c-0.8-0.4-0.7-1.2 0.2-1.8l9.7-5.5c0.9-0.6 2.2-0.6 3-0.2l18 10.4c0.8 0.5 0.7 1.3-0.2 1.8l-9.7 5.6c-0.9 0.5-2.3 0.5-3.1 0.1z"/><path class="j" d="m495.7 353.6l-9.7-5.6c-0.8-0.5-0.7-1.3 0.2-1.8l9.7-5.6c0.9-0.5 2.2-0.6 3-0.1l9.8 5.6c0.8 0.5 0.7 1.3-0.2 1.8l-9.7 5.6c-0.9 0.5-2.3 0.5-3.1 0.1z"/><path class="j" d="m480.3 344.7l-9.7-5.7c-0.8-0.4-0.7-1.2 0.2-1.7l9.6-5.6c0.9-0.5 2.3-0.6 3.1-0.1l9.7 5.6c0.8 0.5 0.7 1.3-0.2 1.8l-9.6 5.6c-0.9 0.5-2.3 0.5-3.1 0.1z"/><path class="j" d="m464.9 335.8l-9.8-5.7c-0.8-0.4-0.7-1.2 0.2-1.7l9.7-5.6c0.9-0.5 2.3-0.6 3.1-0.1l9.7 5.6c0.8 0.4 0.7 1.2-0.2 1.8l-9.7 5.5c-0.9 0.6-2.2 0.6-3 0.2z"/><path class="j" d="m449.4 326.9l-9.7-5.7c-0.8-0.4-0.7-1.2 0.2-1.7l9.7-5.6c0.9-0.5 2.2-0.6 3-0.1l9.8 5.6c0.8 0.4 0.7 1.2-0.2 1.7l-9.7 5.6c-0.9 0.6-2.3 0.6-3.1 0.2z"/><path class="j" d="m510.8 362.3l-9.8-5.6c-0.7-0.5-0.6-1.3 0.3-1.8l9.6-5.6c0.9-0.5 2.3-0.6 3.1-0.1l9.7 5.6c0.8 0.5 0.7 1.3-0.2 1.8l-9.6 5.6c-0.9 0.5-2.3 0.5-3.1 0.1z"/><path class="j" d="m525.9 371l-9.8-5.7c-0.8-0.4-0.7-1.2 0.2-1.7l9.7-5.6c0.9-0.5 2.3-0.6 3-0.1l9.8 5.6c0.8 0.5 0.7 1.3-0.2 1.8l-9.7 5.6c-0.9 0.5-2.3 0.5-3 0.1z"/><path class="j" d="m540.9 379.7l-9.7-5.7c-0.8-0.4-0.7-1.2 0.2-1.7l9.7-5.6c0.9-0.5 2.2-0.6 3-0.1l9.8 5.6c0.7 0.5 0.6 1.2-0.3 1.8l-9.6 5.5c-0.9 0.6-2.3 0.6-3.1 0.2z"/><path class="j" d="m556 388.4l-9.8-5.7c-0.8-0.4-0.7-1.2 0.2-1.7l9.7-5.6c0.9-0.5 2.3-0.6 3.1-0.1l9.7 5.6c0.8 0.5 0.7 1.2-0.2 1.8l-9.7 5.5c-0.9 0.6-2.2 0.6-3 0.2z"/><path class="j" d="m571 397.1l-9.7-5.7c-0.8-0.4-0.7-1.2 0.2-1.7l9.7-5.6c0.9-0.5 2.2-0.6 3-0.1l9.8 5.6c0.8 0.4 0.7 1.2-0.2 1.8l-9.7 5.5c-0.9 0.6-2.3 0.6-3.1 0.2z"/><path class="j" d="m586.1 405.8l-9.8-5.7c-0.7-0.4-0.6-1.2 0.3-1.7l9.6-5.6c0.9-0.5 2.3-0.6 3.1-0.1l9.7 5.6c0.8 0.4 0.7 1.2-0.2 1.8l-9.6 5.5c-0.9 0.6-2.3 0.6-3.1 0.2z"/><path class="j" d="m601.2 414.5l-9.8-5.7c-0.8-0.4-0.7-1.2 0.2-1.7l9.7-5.6c0.9-0.5 2.3-0.6 3-0.1l9.8 5.6c0.8 0.4 0.7 1.2-0.2 1.8l-9.7 5.5c-0.9 0.6-2.3 0.6-3 0.2z"/><path class="j" d="m616.2 423.2l-9.7-5.7c-0.8-0.4-0.7-1.2 0.2-1.7l9.7-5.6c0.9-0.5 2.2-0.6 3-0.1l9.8 5.6c0.7 0.4 0.6 1.2-0.3 1.7l-9.6 5.6c-0.9 0.5-2.3 0.6-3.1 0.2z"/><path class="j" d="m631.3 431.8l-9.8-5.6c-0.8-0.4-0.7-1.2 0.3-1.7l9.6-5.6c0.9-0.5 2.3-0.6 3.1-0.2l9.7 5.7c0.8 0.4 0.7 1.2-0.2 1.7l-9.7 5.6c-0.9 0.5-2.2 0.6-3 0.1z"/><path class="j" d="m487.8 332.1l-9.7-5.6c-0.8-0.5-0.7-1.3 0.2-1.8l9.6-5.6c0.9-0.5 2.3-0.6 3.1-0.1l9.7 5.6c0.8 0.5 0.7 1.3-0.2 1.8l-9.6 5.6c-0.9 0.5-2.3 0.5-3.1 0.1z"/><path class="j" d="m472.8 323.4l-9.7-5.6c-0.8-0.5-0.7-1.2 0.2-1.8l9.7-5.5c0.9-0.6 2.2-0.6 3-0.2l9.8 5.7c0.7 0.4 0.6 1.2-0.3 1.7l-9.6 5.6c-0.9 0.5-2.3 0.6-3.1 0.1z"/><path class="j" d="m457.8 314.8l-9.7-5.7c-0.8-0.4-0.7-1.2 0.2-1.7l9.7-5.6c0.9-0.5 2.2-0.6 3-0.1l9.8 5.6c0.8 0.5 0.7 1.3-0.2 1.8l-9.7 5.6c-0.9 0.5-2.3 0.5-3.1 0.1z"/><path class="j" d="m442.9 306.1l-9.8-5.6c-0.8-0.5-0.7-1.2 0.2-1.8l9.7-5.5c0.9-0.6 2.3-0.6 3-0.2l9.8 5.7c0.8 0.4 0.7 1.2-0.2 1.7l-9.7 5.6c-0.9 0.5-2.3 0.6-3 0.1z"/><path class="j" d="m458.3 297.2l-9.8-5.6c-0.8-0.5-0.7-1.2 0.2-1.8l3.2-1.8c0.9-0.5 2.3-0.6 3.1-0.1l9.7 5.6c0.8 0.4 0.7 1.2-0.2 1.8l-3.2 1.8c-0.9 0.5-2.3 0.6-3 0.1z"/><path class="j" d="m477.8 308.5l-9.7-5.6c-0.8-0.5-0.7-1.3 0.2-1.8l3.2-1.8c0.9-0.5 2.3-0.6 3-0.1l9.8 5.6c0.8 0.4 0.7 1.2-0.2 1.7l-3.2 1.9c-0.9 0.5-2.3 0.6-3.1 0.1z"/><path class="j" d="m492.7 317.1l-9.7-5.6c-0.8-0.4-0.7-1.2 0.2-1.8l3.2-1.8c0.9-0.5 2.3-0.6 3.1-0.1l9.7 5.6c0.8 0.5 0.7 1.2-0.2 1.8l-3.2 1.8c-0.9 0.5-2.3 0.6-3.1 0.1z"/><path class="j" d="m507.7 325.8l-9.8-5.7c-0.8-0.4-0.7-1.2 0.2-1.7l3.2-1.9c0.9-0.5 2.3-0.6 3.1-0.1l9.7 5.6c0.8 0.5 0.7 1.3-0.2 1.8l-3.2 1.8c-0.9 0.5-2.3 0.6-3 0.2z"/><path class="j" d="m522.6 334.4l-9.8-5.7c-0.7-0.4-0.7-1.2 0.3-1.7l3.1-1.9c1-0.5 2.3-0.5 3.1-0.1l9.8 5.6c0.7 0.5 0.6 1.3-0.3 1.8l-3.2 1.8c-0.9 0.6-2.2 0.6-3 0.2z"/><path class="j" d="m605.9 382.5l-9.8-5.7c-0.7-0.4-0.6-1.2 0.3-1.7l3.2-1.9c0.9-0.5 2.2-0.5 3-0.1l9.8 5.6c0.8 0.5 0.7 1.3-0.3 1.8l-3.1 1.8c-0.9 0.6-2.3 0.6-3.1 0.2z"/><path class="j" d="m620.8 391.1l-9.7-5.6c-0.8-0.5-0.7-1.3 0.2-1.8l3.2-1.9c0.9-0.5 2.3-0.5 3-0.1l9.8 5.7c0.8 0.4 0.7 1.2-0.2 1.7l-3.2 1.9c-0.9 0.5-2.3 0.5-3.1 0.1z"/><path class="j" d="m635.7 399.7l-9.7-5.6c-0.8-0.5-0.7-1.3 0.2-1.8l3.2-1.8c0.9-0.6 2.3-0.6 3.1-0.2l9.7 5.7c0.8 0.4 0.7 1.2-0.2 1.7l-3.2 1.9c-0.9 0.5-2.3 0.6-3.1 0.1z"/><path class="j" d="m650.7 408.3l-9.8-5.6c-0.8-0.5-0.7-1.3 0.2-1.8l3.2-1.8c0.9-0.5 2.3-0.6 3.1-0.1l9.7 5.6c0.8 0.4 0.7 1.2-0.2 1.7l-3.2 1.9c-0.9 0.5-2.2 0.6-3 0.1z"/><path class="j" d="m502.9 340.8l-9.8-5.7c-0.8-0.4-0.7-1.2 0.2-1.7l9.7-5.6c0.9-0.5 2.3-0.6 3.1-0.1l9.7 5.6c0.8 0.5 0.7 1.2-0.2 1.8l-9.7 5.6c-0.9 0.5-2.2 0.5-3 0.1z"/><path class="j" d="m517.9 349.5l-9.7-5.7c-0.8-0.4-0.7-1.2 0.2-1.7l9.7-5.6c0.9-0.5 2.2-0.6 3-0.1l9.8 5.6c0.7 0.5 0.7 1.2-0.3 1.8l-9.6 5.5c-0.9 0.6-2.3 0.6-3.1 0.2z"/><path class="j" d="m533 358.2l-9.8-5.7c-0.7-0.4-0.6-1.2 0.3-1.7l9.6-5.6c0.9-0.5 2.3-0.6 3.1-0.1l9.7 5.6c0.8 0.5 0.7 1.2-0.2 1.8l-9.7 5.5c-0.9 0.6-2.2 0.6-3 0.2z"/><path class="j" d="m548.1 366.9l-9.8-5.7c-0.8-0.4-0.7-1.2 0.2-1.7l9.7-5.6c0.9-0.5 2.3-0.6 3-0.1l9.8 5.6c0.8 0.4 0.7 1.2-0.2 1.8l-9.7 5.5c-0.9 0.6-2.3 0.6-3 0.2z"/><path class="j" d="m563.1 375.6l-9.7-5.7c-0.8-0.4-0.7-1.2 0.2-1.7l9.6-5.6c0.9-0.5 2.3-0.6 3.1-0.1l9.7 5.6c0.8 0.4 0.7 1.2-0.2 1.8l-9.6 5.5c-0.9 0.6-2.3 0.6-3.1 0.2z"/><path class="j" d="m578.2 384.3l-9.8-5.7c-0.8-0.4-0.7-1.2 0.2-1.7l9.7-5.6c0.9-0.5 2.3-0.6 3.1-0.1l9.7 5.6c0.8 0.4 0.7 1.2-0.2 1.7l-9.7 5.6c-0.9 0.5-2.2 0.6-3 0.2z"/><path class="j" d="m593.2 392.9l-9.7-5.6c-0.8-0.4-0.7-1.2 0.2-1.7l9.7-5.6c0.9-0.5 2.2-0.6 3-0.2l9.8 5.7c0.8 0.4 0.7 1.2-0.3 1.7l-9.6 5.6c-0.9 0.5-2.3 0.6-3.1 0.1z"/><path class="j" d="m608.3 401.6l-9.8-5.6c-0.7-0.4-0.6-1.2 0.3-1.8l9.6-5.5c0.9-0.6 2.3-0.6 3.1-0.2l9.7 5.7c0.8 0.4 0.7 1.2-0.2 1.7l-9.7 5.6c-0.9 0.5-2.2 0.6-3 0.1z"/><path class="j" d="m623.4 410.3l-9.8-5.6c-0.8-0.4-0.7-1.2 0.2-1.8l9.7-5.5c0.9-0.6 2.3-0.6 3-0.2l9.8 5.7c0.8 0.4 0.7 1.2-0.2 1.7l-9.7 5.6c-0.9 0.5-2.3 0.6-3 0.1z"/><path class="j" d="m416.8 341.9l-28.8-16.6c-0.7-0.5-0.6-1.3 0.3-1.8l9.6-5.6c0.9-0.5 2.3-0.6 3.1-0.1l28.7 16.6c0.8 0.4 0.7 1.2-0.2 1.7l-9.7 5.6c-0.9 0.5-2.3 0.6-3 0.2z"/><path class="j" d="m601.8 448.7l-28.7-16.6c-0.8-0.5-0.7-1.3 0.2-1.8l9.6-5.6c1-0.5 2.3-0.5 3.1-0.1l28.7 16.6c0.8 0.5 0.7 1.2-0.2 1.8l-9.7 5.5c-0.9 0.6-2.2 0.6-3 0.2z"/><path class="j" d="m541.6 433.1l-9.8-5.6c-0.8-0.5-0.7-1.3 0.2-1.8l11.5-6.6c0.9-0.6 2.3-0.6 3.1-0.2l9.7 5.7c0.8 0.4 0.7 1.2-0.2 1.7l-11.5 6.7c-0.9 0.5-2.3 0.6-3 0.1z"/><path class="j" d="m432.2 370l-15.6-9c-0.8-0.5-0.7-1.3 0.2-1.8l11.5-6.7c0.9-0.5 2.3-0.5 3.1-0.1l15.6 9c0.8 0.5 0.7 1.3-0.2 1.8l-11.6 6.6c-0.9 0.6-2.2 0.6-3 0.2z"/><path class="j" d="m527 424.7l-15.5-9c-0.8-0.4-0.7-1.2 0.2-1.7l11.5-6.7c0.9-0.5 2.3-0.6 3-0.1l15.6 9c0.8 0.4 0.7 1.2-0.2 1.8l-11.5 6.6c-0.9 0.5-2.3 0.6-3.1 0.1z"/><path class="j" d="m453.9 382.5l-15.6-9c-0.8-0.4-0.7-1.2 0.2-1.8l11.6-6.6c0.9-0.5 2.2-0.6 3-0.1l15.6 9c0.8 0.4 0.7 1.2-0.2 1.7l-11.5 6.7c-0.9 0.5-2.3 0.6-3.1 0.1z"/><path class="j" d="m453.2 365l67.8 39.2c0.9 0.5 0.9 1.3 0 1.7l-11.7 6.8c-0.9 0.5-2.2 0.5-3.1 0l-67.8-39.1z"/><path class="j" d="m583.7 448.9l10.8 6.2c0.7 0.4 0.6 1.1-0.2 1.5l-4.7 2.7c-0.7 0.4-1.8 0.5-2.5 0.1l-10.8-6.3c-0.7-0.3-0.6-1 0.1-1.4l4.7-2.7c0.8-0.5 1.9-0.5 2.6-0.1z"/><path class="j" d="m568.5 440.1l10.8 6.3c0.7 0.3 0.6 1-0.2 1.4l-4.7 2.7c-0.7 0.5-1.8 0.5-2.5 0.1l-10.8-6.2c-0.7-0.4-0.6-1 0.2-1.5l4.7-2.7c0.7-0.4 1.8-0.5 2.5-0.1z"/><path class="j" d="m553.4 431.4l10.9 6.3c0.6 0.4 0.5 1-0.2 1.4l-4.7 2.7c-0.8 0.5-1.9 0.5-2.5 0.1l-10.9-6.2c-0.6-0.4-0.5-1 0.2-1.5l4.7-2.7c0.7-0.4 1.9-0.5 2.5-0.1z"/><path class="j" d="m576.8 435.3l10.8 6.3c0.7 0.3 0.6 1-0.1 1.4l-4.7 2.7c-0.8 0.5-1.9 0.5-2.5 0.1l-10.9-6.2c-0.7-0.4-0.6-1 0.2-1.5l4.7-2.7c0.7-0.4 1.8-0.5 2.5-0.1z"/></g><path class="k" d="m736.2 417.7l-287.8-166.1c-4.5-2.6-6.8-9-5.2-14.2l65-211.3c1.7-5.2 6.6-7.4 11.2-4.7l287.7 166.1c4.5 2.6 6.9 9 5.3 14.2l-65.1 211.3c-1.6 5.2-6.6 7.3-11.1 4.7z"/><path class="l" d="m733.5 410.3l-279.1-161.2c-4.3-2.5-6.6-8.6-5.1-13.6l62.2-202c1.6-5 6.3-7.1 10.7-4.6l279.1 161.3c4.3 2.5 6.5 8.6 5 13.6l-62.2 202c-1.6 5-6.3 7-10.6 4.5z"/><path class="m" d="m733.5 410.3l-279.1-161.2c-4.3-2.5-6.6-8.6-5.1-13.6l62.2-202c1.6-5 6.3-7.1 10.7-4.6l279.1 161.3c4.3 2.5 6.5 8.6 5 13.6l-62.2 202c-1.6 5-6.3 7-10.6 4.5z"/><path class="m" d="m733.5 410.3l-279.1-161.2c-4.3-2.5-6.6-8.6-5.1-13.6l62.2-202c1.6-5 6.3-7.1 10.7-4.6l279.1 161.3c4.3 2.5 6.5 8.6 5 13.6l-62.2 202c-1.6 5-6.3 7-10.6 4.5z"/><path class="n" d="m718.5 348.6l-189-109.1c-2.9-1.7-4.5-5.9-3.4-9.3l42.7-138.7c1.1-3.5 4.3-4.9 7.3-3.2l188.9 109.1c3 1.7 4.5 5.9 3.5 9.4l-42.7 138.7c-1.1 3.4-4.4 4.8-7.3 3.1z"/><path class="o" d="m692.9 351.9l-188.9-109c-2.9-1.7-4.5-5.9-3.4-9.4l42.7-138.7c1-3.4 4.3-4.8 7.3-3.1l188.9 109.1c3 1.7 4.5 5.9 3.5 9.3l-42.8 138.7c-1 3.5-4.3 4.9-7.3 3.1z"/><g style="opacity:.5"><path class="j" d="m692.9 351.9l-188.9-109c-2.9-1.7-4.5-5.9-3.4-9.4l42.7-138.7c1-3.4 4.3-4.8 7.3-3.1l188.9 109.1c3 1.7 4.5 5.9 3.5 9.3l-42.8 138.7c-1 3.5-4.3 4.9-7.3 3.1z"/></g><path class="a" d="m739.5 200.8l-188.9-109.1c-1.9-1.1-3.9-0.9-5.3 0.2 0.9 0 1.8 0.2 2.7 0.7l188.9 109c3 1.8 4.5 5.9 3.5 9.4l-42.8 138.7c-0.3 1.3-1.1 2.3-1.9 2.9 2 0 3.8-1.4 4.5-3.8l42.8-138.7c1-3.4-0.5-7.6-3.5-9.3z"/><path fill-rule="evenodd" class="m" d="m454.7 465.2c-2.6 0-5.1-0.5-7-1.6l-75.7-43.7c-2-1.2-3.1-2.8-3.1-4.7 0-2.1 1.5-4.2 4.1-5.8l39-22.5c4.8-2.7 11.8-3 15.9-0.6l75.7 43.7c2 1.2 3.1 2.8 3.1 4.7 0 2.1-1.5 4.2-4.2 5.8l-38.9 22.5c-2.6 1.5-5.8 2.2-8.9 2.2zm-33.7-78.3c-2.8 0-5.7 0.7-7.9 1.9l-39 22.5c-1.9 1.2-3 2.6-3 3.9 0 1.3 1 2.3 2 2.8l75.7 43.7c3.4 2 9.7 1.7 13.7-0.6l39-22.5c1.9-1.2 3-2.6 3-3.9 0-1.3-1.1-2.3-2-2.8l-75.7-43.7c-1.5-0.9-3.6-1.3-5.8-1.3z"/><path class="a" d="m596.6 164.5l-11.7-6.8c-1.1-0.6-1.7-2.1-1.3-3.3 0.4-1.3 1.6-1.7 2.6-1.1l11.7 6.7c1.1 0.6 1.7 2.1 1.3 3.4-0.3 1.2-1.5 1.7-2.6 1.1z"/><path class="a" d="m624.4 180.5l-17.2-9.9c-1.1-0.6-1.7-2.1-1.3-3.4 0.4-1.2 1.5-1.7 2.6-1.1l17.2 10c1.1 0.6 1.7 2.1 1.3 3.3-0.3 1.3-1.5 1.8-2.6 1.1z"/><path class="a" d="m573 216.5l-11.6-6.8c-1.1-0.6-1.7-2.1-1.3-3.3 0.3-1.3 1.5-1.7 2.6-1.1l11.7 6.7c1 0.6 1.6 2.1 1.3 3.4-0.4 1.2-1.6 1.7-2.7 1.1z"/><path class="a" d="m597.8 230.8l-17.2-10c-1.1-0.6-1.6-2.1-1.3-3.3 0.4-1.2 1.6-1.7 2.6-1.1l17.3 9.9c1 0.7 1.6 2.2 1.3 3.4-0.4 1.2-1.6 1.7-2.7 1.1z"/><path class="a" d="m561.6 155.2l-7.3-4.2c-1.1-0.6-1.7-2.1-1.3-3.4 0.4-1.2 1.6-1.7 2.6-1.1l7.3 4.3c1.1 0.6 1.7 2.1 1.3 3.3-0.3 1.2-1.5 1.7-2.6 1.1z"/><path class="a" d="m583.6 178.8l-22.3-12.9c-1.1-0.6-1.7-2.1-1.3-3.3 0.3-1.2 1.5-1.7 2.6-1.1l22.3 12.9c1.1 0.6 1.7 2.1 1.3 3.3-0.4 1.2-1.6 1.7-2.6 1.1z"/><path class="a" d="m563 188.8l-7.3-4.2c-1.1-0.6-1.7-2.1-1.3-3.4 0.4-1.2 1.5-1.7 2.6-1.1l7.3 4.3c1.1 0.6 1.7 2.1 1.3 3.3-0.3 1.2-1.5 1.7-2.6 1.1z"/><path class="a" d="m600.5 254.2l-19.5-11.2c-1-0.7-1.6-2.2-1.3-3.4 0.4-1.2 1.6-1.7 2.7-1.1l19.5 11.3c1 0.6 1.6 2.1 1.3 3.3-0.4 1.2-1.6 1.7-2.7 1.1z"/><path class="a" d="m554.8 206l-4.7-2.8c-1-0.6-1.6-2.1-1.3-3.3 0.4-1.2 1.6-1.7 2.7-1.1l4.6 2.7c1.1 0.6 1.7 2.1 1.3 3.4-0.3 1.2-1.5 1.7-2.6 1.1z"/><path class="a" d="m550.4 225.3l-5.8-3.4c-1.1-0.6-1.7-2.1-1.3-3.4 0.3-1.2 1.5-1.7 2.6-1l5.8 3.3c1.1 0.6 1.7 2.1 1.3 3.4-0.4 1.2-1.5 1.7-2.6 1.1z"/><path class="a" d="m573 238.3l-15.3-8.8c-1.1-0.7-1.7-2.2-1.3-3.4 0.3-1.2 1.5-1.7 2.6-1.1l15.3 8.9c1.1 0.6 1.7 2.1 1.3 3.3-0.3 1.3-1.5 1.7-2.6 1.1z"/><path class="a" d="m552.8 237.6l-11-6.4c-1.1-0.6-1.7-2.1-1.3-3.3 0.4-1.3 1.5-1.7 2.6-1.1l11 6.3c1.1 0.7 1.7 2.2 1.3 3.4-0.3 1.2-1.5 1.7-2.6 1.1z"/><path class="a" d="m617.2 263.9l-7-4.1c-1.1-0.6-1.7-2.1-1.3-3.3 0.3-1.3 1.5-1.8 2.6-1.1l7.1 4.1c1.1 0.6 1.6 2.1 1.3 3.3-0.4 1.2-1.6 1.7-2.7 1.1z"/><path class="a" d="m590.1 204.5l-19.4-11.3c-1.1-0.6-1.7-2.1-1.3-3.3 0.3-1.3 1.5-1.8 2.6-1.1l19.5 11.2c1 0.7 1.6 2.2 1.3 3.4-0.4 1.2-1.6 1.7-2.7 1.1z"/><path class="p" d="m592.4 194.9l-33.9-19.6c-1.1-0.7-1.7-2.2-1.3-3.4 0.4-1.2 1.5-1.7 2.6-1.1l34 19.6c1.1 0.7 1.6 2.2 1.3 3.4-0.4 1.2-1.6 1.7-2.7 1.1z"/><path class="p" d="m572.4 205.2l-19.5-11.3c-1.1-0.6-1.6-2.1-1.3-3.3 0.4-1.3 1.6-1.8 2.6-1.1l19.5 11.2c1.1 0.6 1.7 2.2 1.3 3.4-0.3 1.2-1.5 1.7-2.6 1.1z"/><path class="p" d="m604.9 213l-7.1-4.1c-1-0.6-1.6-2.1-1.3-3.3 0.4-1.3 1.6-1.8 2.7-1.1l7 4.1c1.1 0.6 1.7 2.1 1.3 3.3-0.3 1.2-1.5 1.7-2.6 1.1z"/><path class="p" d="m676.9 210.9l-41.9-24.2c-1.1-0.7-1.7-2.2-1.3-3.4 0.4-1.2 1.6-1.7 2.6-1.1l42 24.2c1.1 0.6 1.6 2.1 1.3 3.4-0.4 1.2-1.6 1.7-2.7 1.1z"/><path class="q" d="m570.8 226.1l-23.4-13.5c-1.1-0.6-1.7-2.2-1.3-3.4 0.3-1.2 1.5-1.7 2.6-1.1l23.4 13.5c1.1 0.7 1.7 2.2 1.3 3.4-0.4 1.2-1.5 1.7-2.6 1.1z"/><path class="q" d="m574.3 151.6l-17.2-9.9c-1.1-0.7-1.7-2.2-1.3-3.4 0.4-1.2 1.5-1.7 2.6-1.1l17.2 10c1.1 0.6 1.7 2.1 1.3 3.3-0.3 1.2-1.5 1.7-2.6 1.1z"/><path class="p" d="m549.2 246.4l-19.9-11.5c-1.1-0.6-1.7-2.1-1.3-3.3 0.3-1.3 1.5-1.7 2.6-1.1l19.9 11.5c1.1 0.6 1.7 2.1 1.3 3.4-0.3 1.2-1.5 1.7-2.6 1z"/><path class="a" d="m681.6 189.3l-8.5-4.9c-0.8-0.5-1.2-1.6-0.9-2.5 0.2-0.9 1.1-1.2 1.9-0.8l8.5 4.9c0.8 0.5 1.2 1.6 1 2.5-0.3 0.9-1.2 1.3-2 0.8z"/><path class="a" d="m697.9 198.7l-8.5-4.9c-0.8-0.5-1.2-1.6-1-2.5 0.3-0.9 1.2-1.2 2-0.8l8.5 4.9c0.8 0.5 1.2 1.6 1 2.5-0.3 0.9-1.2 1.3-2 0.8z"/><path class="a" d="m714.2 208.1l-8.5-4.9c-0.8-0.5-1.2-1.6-1-2.5 0.3-0.9 1.2-1.2 1.9-0.8l8.6 4.9c0.8 0.5 1.2 1.6 0.9 2.5-0.2 0.9-1.1 1.3-1.9 0.8z"/><path class="q" d="m722.2 212.7l-0.2-0.1c-0.8-0.5-1.3-1.6-1-2.5 0.3-0.9 1.1-1.2 1.9-0.8l0.3 0.2c0.8 0.4 1.2 1.5 0.9 2.4-0.2 0.9-1.1 1.3-1.9 0.8z"/><path fill-rule="evenodd" class="r" d="m281.6 312.6c-5.4 0-10.8-1.4-15.6-4.1l-57.2-33.1c-2.5-1.4-4-4-4-6.8 0-2.9 1.5-5.4 4-6.9l57.2-33c9.6-5.6 21.6-5.6 31.2 0l57.2 33c2.5 1.5 4 4 4 6.9 0 2.9-1.5 5.4-4 6.8l-57.2 33.1c-4.8 2.7-10.2 4.1-15.6 4.1zm-13.8-7.4c8.5 4.9 19.1 4.9 27.6 0l57.1-33c1.4-0.7 2.1-2.1 2.1-3.6 0-1.5-0.7-2.9-2.1-3.6l-57.1-33.1c-8.5-4.9-19.1-4.9-27.6 0l-57.2 33.1c-1.3 0.7-2.1 2.1-2.1 3.6 0 1.5 0.8 2.9 2.1 3.6z"/><path class="e" d="m309.1 285.4c-15.4 8.9-40.2 8.9-55.6 0-15.3-8.9-15.3-23.2 0-32.1 15.4-8.8 40.2-8.8 55.6 0 15.3 8.9 15.3 23.2 0 32.1z"/><path class="s" d="m339.5 107.7h-111.9l10.5 121.2c0 6.7 4.4 13.4 13.3 18.6 17.8 10.2 46.6 10.2 64.4 0 8.9-5.2 13.3-11.9 13.3-18.6z"/><path class="m" d="m339.5 107.7h-111.9l1.8 20c2.5 3.2 6 6.4 10.3 9.3 21.4 14.2 56.7 16.9 80.8 6.7l-3.8 88.6c-0.1 3.8-1.5 7.6-4 10.6-3.6 4.2-10.6 9.2-24 12.1 9.9-0.7 19.5-3.2 27.1-7.5 8.9-5.2 13.3-11.9 13.3-18.6l8.4-97.2z"/><path class="m" d="m323.1 130.6c-21.8 12.6-57.2 12.6-79.1 0-21.8-12.6-21.8-33.1 0-45.7 21.9-12.6 57.3-12.6 79.1 0 21.9 12.6 21.9 33.1 0 45.7z"/><path class="m" d="m317.7 116c-18.9 10.9-49.4 10.9-68.2 0-18.8-10.9-18.8-28.5 0-39.3 18.8-10.9 49.3-10.9 68.2 0 18.8 10.8 18.8 28.4 0 39.3z"/><path class="t" d="m342.8 106.2h0.1l-0.1-0.1q0-0.1 0-0.2l-1-10.8-0.1 0.1c-0.5-8.2-6.1-16.3-17-22.6-22.7-13.1-59.5-13.1-82.2 0-11.2 6.4-16.8 14.8-17 23.2h-0.1l-1 9.7q0 0.4-0.1 0.7v0.2c-0.6 9.2 5.2 18.5 17.3 25.5 23.2 13.4 60.8 13.4 83.9 0 12.3-7 18-16.4 17.3-25.7z"/><path class="u" d="m317.7 116c-18.9 10.9-49.4 10.9-68.2 0-18.8-10.9-18.8-28.5 0-39.3 18.8-10.9 49.3-10.9 68.2 0 18.8 10.8 18.8 28.4 0 39.3z"/><path class="v" d="m315.4 116c-18.8 10.9-49.3 10.9-68.2 0-18.8-10.9-18.8-28.5 0-39.3 18.9-10.9 49.4-10.9 68.2 0 18.8 10.8 18.8 28.4 0 39.3z"/><path class="m" d="m255.2 80.8c18.9-10.8 49.4-10.8 68.2 0 0.2 0.2 0.4 0.3 0.7 0.4q-2.8-2.4-6.4-4.5c-18.9-10.9-49.4-10.9-68.2 0-18.6 10.7-18.8 28-0.7 38.9-12-10.8-9.9-25.3 6.4-34.8z"/><path class="w" d="m249.5 81.5c18.8-10.9 49.3-10.9 68.2 0 8.3 4.8 12.9 11 13.9 17.3 1.2-7.9-3.5-16.1-13.9-22.1-18.9-10.9-49.4-10.9-68.2 0-10.5 6-15.1 14.2-13.9 22.1 0.9-6.3 5.6-12.5 13.9-17.3z"/><path fill-rule="evenodd" class="x" d="m324.7 120.5c-23 13-59.9 12.7-82.6-0.7-22.7-13.4-22.5-34.7 0.4-47.7 22.9-12.9 59.9-12.6 82.6 0.8 22.7 13.3 22.5 34.7-0.4 47.6zm-7-43.8c-18.9-10.9-49.4-10.9-68.2 0-18.8 10.8-18.8 28.4 0 39.3 6.3 3.6 13.9 6 21.9 7.2l0.9-2.8c0.4-1.2 1.4-2 2.6-2h17.3c1.3 0 2.3 0.8 2.7 2l0.9 2.8c8-1.2 15.6-3.6 21.9-7.2 18.8-10.9 18.8-28.5 0-39.3z"/><path class="a" d="m317.7 74.6c-18.9-10.9-49.4-10.9-68.2 0-9.8 5.7-14.5 13.3-14 20.7 0.4-6.8 5.1-13.5 14-18.6 18.8-10.9 49.3-10.9 68.2 0 8.9 5.1 13.6 11.8 14 18.6 0.5-7.4-4.2-15-14-20.7z"/><path class="a" d="m324.7 118.5c-23 12.9-59.9 12.6-82.6-0.8-10.8-6.3-16.4-14.5-16.8-22.7-0.5 8.9 5.1 17.9 16.8 24.8 22.7 13.4 59.6 13.7 82.6 0.7 12-6.8 17.7-15.9 17.2-24.9-0.4 8.4-6.1 16.6-17.2 22.9z"/><path class="y" d="m288.8 124.7h-10.4c-0.7 0-1.3-0.6-1.3-1.3v-0.2c0-0.7 0.6-1.3 1.3-1.3h10.4c0.7 0 1.3 0.6 1.3 1.3v0.2c0 0.7-0.6 1.3-1.3 1.3z"/><path class="z" d="m288.8 121.9h-10.4c-0.7 0-1.3 0.6-1.3 1.3v0.2q0 0.2 0.1 0.4c0.1-0.6 0.6-1 1.2-1h10.4c0.6 0 1 0.4 1.2 1q0.1-0.2 0.1-0.4v-0.2c0-0.7-0.6-1.3-1.3-1.3z"/><path class="p" d="m285.2 216.4c-1.3 4.8-6.2 7.6-11 6.4-4.7-1.3-7.6-6.2-6.3-11 1.3-4.7 5.8-6.1 10.5-4.8 4.8 1.2 8 4.7 6.8 9.4z"/><path class="p" d="m292.2 207c-1.8 1.8-4.1 1.5-5.6 0-1.5-1.6-1.7-3.9 0.1-5.7 1.8-1.7 5.2-2.6 6.7-1 1.6 1.5 0.6 4.9-1.2 6.7z"/><path class="p" d="m282.9 199.5c-0.5 2.5-2.5 3.7-4.6 3.3-2.2-0.4-3.7-2.2-3.2-4.7 0.4-2.4 2.7-5.1 4.8-4.7 2.2 0.3 3.4 3.6 3 6.1z"/><path class="p" d="m271.3 198.4c1 2.3-0.1 4.4-2.1 5.2-2 0.8-4.2 0.1-5.2-2.2-0.9-2.3-0.5-5.8 1.6-6.7 2-0.8 4.8 1.4 5.7 3.7z"/><path class="A" d="m287.3 123.3c0 0 31.2-10.4 18.6-46.4-12.7-35.9-37.4-46.9-27.4-75.6 0 0-15.6 23.2-1 54.7 14.5 31.5 17.7 27.9 17.5 43-0.2 17.9-14.6 24.3-14.6 24.3z"/><path class="A" d="m290.1 6.3c0 0-3.3-21.5 16.9-43.2 0 0-17.9 39.8-12 59.5 0 0-4.7-12.5-4.9-16.3z"/></svg>
